<svg width="49" height="52" viewBox="0 0 49 52" fill="none" xmlns="http://www.w3.org/2000/svg">
<path d="M17.0929 27.0653L16.8872 27.1833C15.3141 25.8032 12.0613 25.9418 9.03917 27.6579C6.01706 29.3739 4.22071 32.1014 4.60568 34.1511L4.39899 34.2647L5.02359 35.1884C6.32951 37.1002 9.97637 37.1517 13.3423 35.2433C16.7082 33.3349 18.5452 30.1734 17.5641 28.0761L17.0929 27.0653Z" fill="url(#paint0_linear_299_106)"/>
<path d="M12.8543 34.3893C16.3585 32.4013 18.2356 29.0911 17.0469 26.9958C15.8582 24.9006 12.0539 24.8136 8.54967 26.8017C5.04544 28.7897 3.16833 32.0999 4.35702 34.1951C5.54571 36.2904 9.35007 36.3773 12.8543 34.3893Z" fill="url(#paint1_linear_299_106)"/>
<path d="M12.2681 33.3553C14.9088 31.8572 16.3241 29.3642 15.4294 27.7871C14.5347 26.2099 11.6687 26.1459 9.02799 27.644C6.38732 29.1421 4.97197 31.6351 5.86671 33.2122C6.76145 34.7893 9.62746 34.8534 12.2681 33.3553Z" fill="url(#paint2_linear_299_106)"/>
<path d="M17.05 27.002L17.1385 27.1895C17.1671 27.2514 17.2058 27.327 17.2433 27.4167L17.3379 27.7449C17.4074 28.0444 17.4339 28.3523 17.4168 28.6593C17.4139 28.8388 17.3666 29.0244 17.3451 29.2222C17.3237 29.4199 17.2437 29.6225 17.1718 29.83C17.0949 30.0442 17.0048 30.2534 16.9021 30.4564C16.841 30.5558 16.7972 30.6695 16.7382 30.7777C16.6792 30.8858 16.6095 30.9873 16.5435 31.0948C16.4115 31.3099 16.251 31.5111 16.1016 31.7303C15.9523 31.9494 15.7643 32.1412 15.5783 32.3416C15.3924 32.542 15.1978 32.7445 14.9823 32.9268L14.6646 33.2092C14.5534 33.3 14.4411 33.3865 14.3298 33.4774C13.8721 33.8316 13.3908 34.1544 12.8893 34.4435C12.3833 34.7263 11.8593 34.9758 11.3207 35.1903L10.9184 35.3393L10.5142 35.4613C10.2471 35.5527 9.97341 35.6067 9.70715 35.6727C9.44089 35.7387 9.17336 35.7706 8.91389 35.8075C8.65442 35.8444 8.39678 35.8602 8.14202 35.8592L7.76929 35.8636C7.64655 35.8585 7.52712 35.8481 7.41305 35.841C7.18378 35.8238 6.95576 35.7926 6.73028 35.7476C6.51329 35.7032 6.31218 35.639 6.12017 35.584C5.94368 35.5165 5.77078 35.44 5.60213 35.3548C5.32883 35.2142 5.07782 35.034 4.85728 34.8199L4.62125 34.5714L4.48217 34.3639L4.36709 34.1897L4.48816 34.3602C4.52707 34.4174 4.57342 34.4865 4.63322 34.564L4.85912 34.7988C5.08606 35.0018 5.33988 35.1726 5.61343 35.3063C5.78202 35.3863 5.95504 35.4567 6.13166 35.517C6.31994 35.566 6.52002 35.6259 6.73329 35.6643C6.95485 35.7068 7.17902 35.7343 7.40427 35.7468L7.76216 35.7667L8.13489 35.7623C8.38531 35.7643 8.64393 35.7047 8.91005 35.7052C9.17618 35.7058 9.43229 35.6261 9.69524 35.5655C9.9582 35.5049 10.2282 35.4449 10.4926 35.3518L10.8914 35.2265L11.2883 35.0742C11.8255 34.8631 12.3479 34.6163 12.852 34.3355C13.3543 34.0477 13.8357 33.7249 14.2925 33.3693L14.6267 33.1082C14.7326 33.0141 14.8368 32.9226 14.94 32.8268C15.1539 32.6473 15.3398 32.4468 15.5322 32.2541C15.7245 32.0613 15.8873 31.8503 16.0559 31.6541C16.2245 31.4578 16.3759 31.2473 16.5009 31.0316C16.5652 30.9268 16.6296 30.822 16.6922 30.7199C16.7549 30.6177 16.8042 30.5073 16.8572 30.4029C16.9626 30.2041 17.0543 29.9982 17.1317 29.7869C17.2073 29.5854 17.2575 29.383 17.3135 29.1953C17.3695 29.0077 17.393 28.8186 17.3986 28.6407C17.4251 28.3381 17.4078 28.0334 17.3472 27.7358L17.2639 27.4071C17.2281 27.3148 17.1921 27.2409 17.1635 27.1789L17.05 27.002Z" fill="#FFFFF1"/>
<path d="M12.3152 33.4676C14.9544 31.9703 16.3685 29.478 15.4738 27.9009C14.579 26.3238 11.7143 26.259 9.07511 27.7563C6.43596 29.2535 5.02184 31.7458 5.91658 33.3229C6.81132 34.9001 9.6761 34.9648 12.3152 33.4676Z" fill="url(#paint3_linear_299_106)"/>
<path d="M5.8687 33.2204L5.802 33.0758C5.77922 33.0285 5.75002 32.9736 5.72205 32.9046L5.65152 32.6578C5.59973 32.4322 5.58131 32.2002 5.59682 31.9692C5.60688 31.8274 5.62438 31.6862 5.64924 31.5462C5.69019 31.4011 5.72638 31.2457 5.78364 31.0921C5.84094 30.9307 5.90811 30.7729 5.98477 30.6197L6.11054 30.3787L6.25738 30.1395C6.35637 29.9782 6.47583 29.8258 6.58887 29.6657C6.70192 29.5057 6.84411 29.3524 6.98299 29.2045C7.12188 29.0566 7.2684 28.9023 7.43044 28.765L7.67338 28.544C7.75575 28.4762 7.8408 28.4099 7.93245 28.333C8.61863 27.7889 9.38479 27.3542 10.2038 27.0442L10.5088 26.9391L10.816 26.8427C11.0157 26.7766 11.2282 26.7257 11.4228 26.686C11.6174 26.6463 11.8335 26.6198 12.0194 26.5822C12.2053 26.5446 12.4153 26.5403 12.5992 26.5421L12.8799 26.5368L13.1502 26.5547C13.3183 26.5748 13.4849 26.6054 13.6491 26.6463C13.8105 26.6788 13.969 26.728 14.1071 26.7683C14.2414 26.8157 14.3723 26.8725 14.4986 26.9383C14.7038 27.0443 14.8928 27.179 15.0598 27.3383L15.2375 27.5251L15.3414 27.6814L15.4321 27.8111L15.3398 27.6841L15.2315 27.5288L15.0505 27.3474C14.8815 27.1921 14.6905 27.0624 14.4838 26.9625C14.3572 26.9013 14.2271 26.8474 14.0943 26.8012C13.9503 26.7646 13.8014 26.7176 13.6411 26.6895C13.4744 26.6559 13.3053 26.635 13.1354 26.627L12.8678 26.6108L12.5914 26.6151C12.4032 26.6142 12.2055 26.6409 12.0181 26.6628C11.8307 26.6847 11.614 26.7182 11.4242 26.7682C11.2343 26.8183 11.0224 26.8621 10.8227 26.9282L10.5226 27.0253L10.2223 27.1407C9.8193 27.3013 9.42745 27.4885 9.04933 27.7011C8.67259 27.916 8.31105 28.1565 7.96726 28.421L7.71376 28.6169C7.63408 28.6864 7.55709 28.7576 7.47082 28.8379C7.30878 28.9752 7.16824 29.1258 7.02398 29.2704C6.87972 29.415 6.75531 29.5755 6.62882 29.7273C6.50234 29.8791 6.38991 30.0321 6.2936 30.195C6.24575 30.273 6.19625 30.3536 6.14841 30.4315L6.02594 30.6672C5.94815 30.8183 5.87974 30.9741 5.82109 31.1336C5.76382 31.2872 5.7233 31.4436 5.68564 31.5833C5.65747 31.721 5.63638 31.86 5.62247 31.9997C5.60363 32.2282 5.61697 32.4581 5.66209 32.6828L5.7256 32.929L5.8012 33.1012L5.8687 33.2204Z" fill="#FFFFF1"/>
<path d="M24.2331 43.3382C25.2859 45.783 27.929 49.1817 27.929 49.1817L28.9781 48.6785C30.1195 48.1875 29.8424 44.9976 28.3609 41.5571C26.8795 38.1165 24.7547 35.7242 23.6132 36.2152L22.5234 36.6342C22.5234 36.6342 23.171 40.9026 24.2331 43.3382Z" fill="url(#paint4_linear_299_106)"/>
<path d="M22.5261 36.6362C23.6676 36.1453 25.7912 38.5516 27.2929 42.0194C28.7946 45.4873 29.0678 48.6895 27.9291 49.1821C26.7904 49.6748 24.6624 47.2694 23.1624 43.7989C21.6623 40.3284 21.3874 37.1289 22.5261 36.6362Z" fill="url(#paint5_linear_299_106)"/>
<path d="M22.5259 36.6359C22.579 36.6162 22.6334 36.6001 22.6886 36.5878C22.8481 36.5572 23.0127 36.5667 23.1676 36.6154C23.7127 36.8128 24.1986 37.1455 24.5799 37.5822C25.1417 38.1718 25.6382 38.8203 26.0609 39.5163C26.5492 40.3112 26.9805 41.1399 27.3513 41.9959C27.7197 42.8528 28.0251 43.7354 28.2653 44.6367C28.4768 45.42 28.6038 46.2237 28.644 47.0341C28.6958 47.6098 28.6044 48.1893 28.3781 48.7212C28.3047 48.8653 28.1988 48.9903 28.0688 49.0864C28.0222 49.1185 27.9729 49.1464 27.9214 49.1699C27.9704 49.1457 28.0173 49.1176 28.0618 49.0858C28.1897 48.9892 28.2909 48.8616 28.356 48.715C28.5641 48.182 28.6381 47.606 28.5715 47.0377C28.4912 45.6191 27.9835 43.7754 27.2259 42.0374C26.8628 41.1852 26.4393 40.3601 25.9586 39.5683C25.5459 38.8736 25.0642 38.2221 24.5211 37.6238C24.1526 37.1855 23.6828 36.8438 23.1523 36.6282C23.0001 36.577 22.8379 36.5624 22.6789 36.5856C22.627 36.5995 22.5759 36.6163 22.5259 36.6359V36.6359Z" fill="#FFFFF1"/>
<path d="M23.0684 38.2124C23.9316 37.8431 25.5467 39.6671 26.6784 42.2787C27.8101 44.8903 28.0214 47.3255 27.1608 47.6965C26.3002 48.0676 24.6835 46.2462 23.5507 43.6302C22.418 41.0143 22.2061 38.5862 23.0684 38.2124Z" fill="url(#paint6_linear_299_106)"/>
<path d="M23.2225 38.148C24.0847 37.7743 25.6998 39.5983 26.8325 42.2143C27.9653 44.8302 28.1755 47.2611 27.3106 47.6331C26.4457 48.0052 24.8332 46.1828 23.7005 43.5668C22.5678 40.9509 22.3576 38.5201 23.2225 38.148Z" fill="url(#paint7_linear_299_106)"/>
<path d="M27.1557 47.7043C27.1161 47.722 27.0746 47.735 27.032 47.7431C26.9127 47.7639 26.7903 47.7571 26.6741 47.7232C26.2631 47.5707 25.8968 47.3178 25.6084 46.9876C23.8728 44.9751 22.7974 42.4781 22.5277 39.8343C22.4864 39.3988 22.5548 38.9599 22.7267 38.5576C22.7803 38.4468 22.8606 38.3512 22.9604 38.2792C22.9957 38.2548 23.0326 38.233 23.0709 38.2138C23.0709 38.2138 23.0296 38.2328 22.9631 38.2809C22.8659 38.3539 22.7888 38.4505 22.7391 38.5615C22.581 38.9657 22.5226 39.4021 22.5688 39.8336C22.8823 42.4554 23.9476 44.9304 25.6362 46.9603C25.9149 47.2847 26.2664 47.5385 26.6619 47.7009C26.7754 47.7394 26.8967 47.749 27.0148 47.7288C27.0624 47.7246 27.1095 47.7164 27.1557 47.7043V47.7043Z" fill="#FFFFF1"/>
<path d="M28.8784 24.855C28.9214 24.7934 28.9765 24.7411 29.0403 24.7014C29.1041 24.6617 29.1754 24.6354 29.2497 24.624C29.2253 24.7003 29.1745 24.7655 29.1065 24.8078C29.0385 24.8501 28.9576 24.8669 28.8784 24.855Z" fill="#BDBDBD"/>
<path d="M35.465 14.0881L35.2234 14.2284C33.9107 12.7913 32.1489 11.8426 30.2266 11.5375C28.3043 11.2325 26.3354 11.5892 24.6423 12.5493C22.9492 13.5095 21.6323 15.016 20.9073 16.8223C20.1823 18.6286 20.0921 20.6276 20.6515 22.4918L20.4116 22.6295L21.5562 24.4423C22.7499 26.2618 24.5913 27.5588 26.7066 28.0699C28.8218 28.581 31.0523 28.2678 32.945 27.1941C34.8378 26.1204 36.2509 24.3665 36.8975 22.2887C37.5441 20.2108 37.3756 17.9648 36.4262 16.0067V16.0067L35.465 14.0881Z" fill="url(#paint8_linear_299_106)"/>
<path d="M32.5113 26.6408C36.7246 24.2506 38.2811 19.0361 35.988 14.9941C33.6948 10.952 28.4204 9.613 24.2071 12.0033C19.9939 14.3935 18.4373 19.608 20.7305 23.65C23.0236 27.6921 28.2981 29.0311 32.5113 26.6408Z" fill="url(#paint9_linear_299_106)"/>
<path d="M31.3835 24.6552C34.5574 22.8545 35.7299 18.9262 34.0023 15.881C32.2748 12.8359 28.3013 11.827 25.1273 13.6276C21.9534 15.4283 20.7809 19.3566 22.5085 22.4018C24.2361 25.4469 28.2095 26.4558 31.3835 24.6552Z" fill="url(#paint10_linear_299_106)"/>
<path d="M35.9842 15.0026L36.1682 15.3598C36.226 15.4767 36.3041 15.6208 36.384 15.792L36.6176 16.3943C36.8024 16.9225 36.9337 17.468 37.0095 18.0226C37.0642 18.3374 37.0557 18.6467 37.0868 18.9878C37.118 19.3289 37.0725 19.6562 37.0388 19.9945C37.0035 20.3334 36.9477 20.6699 36.8717 21.0022C36.8273 21.171 36.7909 21.3448 36.7448 21.5164L36.576 22.0085C36.4598 22.3423 36.3226 22.6685 36.1653 22.985C35.9999 23.2906 35.8323 23.6059 35.6357 23.896C35.44 24.1889 35.226 24.4691 34.9949 24.735C34.88 24.8679 34.765 25.0009 34.6474 25.1323L34.2672 25.4984C33.7505 25.9758 33.1837 26.3959 32.5767 26.7514C31.9608 27.0905 31.3096 27.3609 30.6348 27.5577L30.127 27.6976L29.5889 27.7965C29.242 27.8581 28.8914 27.8976 28.5394 27.9147C28.1909 27.9339 27.834 27.9183 27.4869 27.9051C27.1352 27.8752 26.7855 27.8249 26.4396 27.7544L25.9279 27.6476C25.758 27.5988 25.5887 27.543 25.4248 27.4905C25.0953 27.3864 24.7728 27.2613 24.4593 27.1161C24.1502 26.9746 23.8523 26.8028 23.5705 26.6409C23.2887 26.479 23.0168 26.301 22.7827 26.0796C22.346 25.7312 21.9451 25.3401 21.5861 24.9121L21.1888 24.4018C21.0822 24.2438 21.0008 24.1051 20.9284 23.994L20.7133 23.6511L20.9344 23.9903C21.0058 24.097 21.0915 24.2347 21.1997 24.39L21.6026 24.8852C21.9617 25.3005 22.3624 25.6779 22.7985 26.0116C23.0442 26.2142 23.3067 26.3532 23.5818 26.5442C23.8568 26.7352 24.153 26.8615 24.46 26.9944C24.7686 27.1297 25.0852 27.2462 25.4079 27.3432L25.9035 27.4883L26.4062 27.5859C26.7477 27.6471 27.0924 27.6894 27.4386 27.7126C27.7793 27.7182 28.1318 27.7347 28.4793 27.7112C28.8224 27.6949 29.1642 27.6576 29.5027 27.5993L30.0181 27.5012L30.5161 27.3591C31.1827 27.1579 31.8255 26.8849 32.4333 26.5449C33.0356 26.1974 33.5992 25.7866 34.1143 25.3194C34.2394 25.2001 34.3672 25.0824 34.4923 24.963C34.6173 24.8437 34.7232 24.7014 34.8391 24.5727C35.0683 24.312 35.2805 24.0368 35.4744 23.7489C35.6704 23.4658 35.839 23.1548 36.0172 22.8645C36.1759 22.5569 36.316 22.2401 36.4368 21.9157C36.4954 21.7518 36.5533 21.5912 36.6104 21.4339C36.6549 21.265 36.6977 21.0988 36.7432 20.9343C36.8259 20.6065 36.8879 20.2738 36.929 19.9382C36.9784 19.5985 36.9721 19.2652 36.9936 18.9528C37.0152 18.6404 36.9865 18.3193 36.9382 18.0121C36.8752 17.4664 36.7579 16.9283 36.5882 16.4059L36.3714 15.8065C36.2915 15.6353 36.2178 15.4901 36.16 15.3733L35.9842 15.0026Z" fill="#FFFFF1"/>
<path d="M31.4868 24.8634C34.6607 23.0627 35.8332 19.1344 34.1056 16.0892C32.378 13.0441 28.4045 12.0352 25.2306 13.8358C22.0566 15.6365 20.8841 19.5648 22.6117 22.61C24.3393 25.6551 28.3128 26.664 31.4868 24.8634Z" fill="url(#paint11_linear_299_106)"/>
<path d="M22.5051 22.4081L22.3672 22.1384C22.3226 22.0482 22.2653 21.9427 22.199 21.8095L22.0332 21.3561C21.8945 20.9593 21.7964 20.5495 21.7405 20.1329C21.7001 19.8972 21.7063 19.6641 21.6835 19.4058C21.6607 19.1476 21.6945 18.9056 21.7252 18.6506C21.7517 18.3936 21.7956 18.1387 21.8568 17.8876C21.8905 17.7603 21.9199 17.634 21.9526 17.5024L22.0797 17.1326C22.1701 16.8837 22.274 16.6398 22.3911 16.4023C22.528 16.1792 22.644 15.9358 22.7934 15.7167C22.9395 15.4964 23.0988 15.2853 23.2704 15.0843L23.5331 14.783C23.6286 14.6936 23.7215 14.6026 23.8187 14.5105C24.5859 13.7743 25.5249 13.2415 26.5503 12.9603L26.9333 12.8549L27.3245 12.7842C27.5865 12.7407 27.8509 12.7127 28.1162 12.7002C28.3808 12.6851 28.6501 12.6986 28.9069 12.7082C29.1708 12.731 29.4331 12.7685 29.6928 12.8206L30.0766 12.9007L30.4546 13.0143C30.7015 13.0926 30.9435 13.1855 31.1793 13.2927C31.4135 13.3994 31.6372 13.5293 31.8492 13.6483C32.0611 13.7673 32.2658 13.9041 32.4426 14.0681C32.771 14.3305 33.0726 14.6247 33.343 14.9465L33.6426 15.3265C33.7242 15.4469 33.7859 15.5513 33.8273 15.6286L33.9875 15.8861L33.8256 15.6313L33.6377 15.3346L33.3348 14.9599C33.0629 14.6471 32.7605 14.3623 32.4319 14.1097C32.2512 13.958 32.0511 13.85 31.8426 13.7072C31.6342 13.5645 31.4118 13.4686 31.1802 13.3635C30.9477 13.2606 30.7091 13.1722 30.4657 13.0988L30.0903 12.9869L29.7103 12.9127C29.4543 12.8614 29.1954 12.8261 28.9351 12.807C28.6793 12.8017 28.4128 12.7898 28.1535 12.8083C27.8918 12.8232 27.6313 12.8549 27.3736 12.9031L26.9877 12.9771L26.6102 13.0858C26.1087 13.2378 25.6251 13.4434 25.1678 13.6993C24.7121 13.9596 24.2864 14.2691 23.8982 14.6222L23.6115 14.8903C23.525 14.989 23.4359 15.086 23.3494 15.1846C23.1757 15.3801 23.0153 15.587 22.8693 15.804C22.7189 16.0188 22.5938 16.2529 22.4585 16.4733C22.3405 16.7064 22.2355 16.9458 22.144 17.1906C22.0979 17.314 22.0561 17.4363 22.0132 17.5544C21.9704 17.6724 21.9484 17.8107 21.918 17.9326C21.8553 18.1806 21.8083 18.4324 21.7773 18.6863C21.7472 18.9343 21.7446 19.1917 21.7325 19.4285C21.7203 19.6653 21.74 19.9105 21.7767 20.1403C21.8248 20.5519 21.9142 20.9576 22.0435 21.3514L22.2093 21.8047C22.2675 21.9329 22.3259 22.0428 22.3758 22.1363L22.5051 22.4081Z" fill="#FFFFF1"/>
<defs>
<linearGradient id="paint0_linear_299_106" x1="4.83413" y1="35.033" x2="17.5268" y2="27.8322" gradientUnits="userSpaceOnUse">
<stop stop-color="#FFC352"/>
<stop offset="0.02" stop-color="#E0A63C"/>
<stop offset="0.04" stop-color="#BD8422"/>
<stop offset="0.07" stop-color="#A36C0F"/>
<stop offset="0.09" stop-color="#935D04"/>
<stop offset="0.11" stop-color="#8E5800"/>
<stop offset="0.12" stop-color="#945F07"/>
<stop offset="0.2" stop-color="#C2983F"/>
<stop offset="0.27" stop-color="#E3C268"/>
<stop offset="0.32" stop-color="#F7DC81"/>
<stop offset="0.35" stop-color="#FFE58A"/>
<stop offset="0.5" stop-color="#D8B144"/>
<stop offset="0.61" stop-color="#BD8D13"/>
<stop offset="0.67" stop-color="#B37F00"/>
<stop offset="0.84" stop-color="#7C4400"/>
<stop offset="0.91" stop-color="#612700"/>
<stop offset="0.94" stop-color="#743B00"/>
<stop offset="0.99" stop-color="#A57000"/>
<stop offset="1" stop-color="#B37F00"/>
</linearGradient>
<linearGradient id="paint1_linear_299_106" x1="16.4961" y1="32.1927" x2="4.90753" y2="28.9912" gradientUnits="userSpaceOnUse">
<stop stop-color="#E7AF52"/>
<stop offset="0.16" stop-color="#F2CB7A"/>
<stop offset="0.33" stop-color="#FBE49E"/>
<stop offset="0.42" stop-color="#FFEDAC"/>
<stop offset="0.56" stop-color="#FFECA9"/>
<stop offset="0.68" stop-color="#FFE89E"/>
<stop offset="0.8" stop-color="#FFE18C"/>
<stop offset="0.91" stop-color="#FFD773"/>
<stop offset="1" stop-color="#FFCD59"/>
</linearGradient>
<linearGradient id="paint2_linear_299_106" x1="15.0089" y1="31.6989" x2="6.28102" y2="29.2894" gradientUnits="userSpaceOnUse">
<stop stop-color="#FFC352"/>
<stop offset="0.02" stop-color="#E0A63C"/>
<stop offset="0.04" stop-color="#BD8422"/>
<stop offset="0.07" stop-color="#A36C0F"/>
<stop offset="0.09" stop-color="#935D04"/>
<stop offset="0.11" stop-color="#8E5800"/>
<stop offset="0.12" stop-color="#945F07"/>
<stop offset="0.2" stop-color="#C2983F"/>
<stop offset="0.27" stop-color="#E3C268"/>
<stop offset="0.32" stop-color="#F7DC81"/>
<stop offset="0.35" stop-color="#FFE58A"/>
<stop offset="0.5" stop-color="#D8B144"/>
<stop offset="0.61" stop-color="#BD8D13"/>
<stop offset="0.67" stop-color="#B37F00"/>
<stop offset="0.84" stop-color="#7C4400"/>
<stop offset="0.91" stop-color="#612700"/>
<stop offset="0.94" stop-color="#743B00"/>
<stop offset="0.99" stop-color="#A57000"/>
<stop offset="1" stop-color="#B37F00"/>
</linearGradient>
<linearGradient id="paint3_linear_299_106" x1="15.0603" y1="31.8123" x2="6.33244" y2="29.4029" gradientUnits="userSpaceOnUse">
<stop stop-color="#D69220"/>
<stop offset="0.13" stop-color="#DFAA3E"/>
<stop offset="0.32" stop-color="#EAC862"/>
<stop offset="0.42" stop-color="#EED370"/>
<stop offset="0.56" stop-color="#EED16D"/>
<stop offset="0.69" stop-color="#EECD62"/>
<stop offset="0.81" stop-color="#EEC550"/>
<stop offset="0.93" stop-color="#EEBA37"/>
<stop offset="1" stop-color="#EEB122"/>
</linearGradient>
<linearGradient id="paint4_linear_299_106" x1="29.28" y1="48.4056" x2="23.8787" y2="35.7942" gradientUnits="userSpaceOnUse">
<stop stop-color="#FFC352"/>
<stop offset="0.02" stop-color="#E0A63C"/>
<stop offset="0.04" stop-color="#BD8422"/>
<stop offset="0.07" stop-color="#A36C0F"/>
<stop offset="0.09" stop-color="#935D04"/>
<stop offset="0.11" stop-color="#8E5800"/>
<stop offset="0.12" stop-color="#945F07"/>
<stop offset="0.2" stop-color="#C2983F"/>
<stop offset="0.27" stop-color="#E3C268"/>
<stop offset="0.32" stop-color="#F7DC81"/>
<stop offset="0.35" stop-color="#FFE58A"/>
<stop offset="0.5" stop-color="#D8B144"/>
<stop offset="0.61" stop-color="#BD8D13"/>
<stop offset="0.67" stop-color="#B37F00"/>
<stop offset="0.84" stop-color="#7C4400"/>
<stop offset="0.91" stop-color="#612700"/>
<stop offset="0.94" stop-color="#743B00"/>
<stop offset="0.99" stop-color="#A57000"/>
<stop offset="1" stop-color="#B37F00"/>
</linearGradient>
<linearGradient id="paint5_linear_299_106" x1="27.4004" y1="37.8219" x2="23.6048" y2="47.3045" gradientUnits="userSpaceOnUse">
<stop stop-color="#E7AF52"/>
<stop offset="0.16" stop-color="#F2CB7A"/>
<stop offset="0.33" stop-color="#FBE49E"/>
<stop offset="0.42" stop-color="#FFEDAC"/>
<stop offset="0.56" stop-color="#FFECA9"/>
<stop offset="0.68" stop-color="#FFE89E"/>
<stop offset="0.8" stop-color="#FFE18C"/>
<stop offset="0.91" stop-color="#FFD773"/>
<stop offset="1" stop-color="#FFCD59"/>
</linearGradient>
<linearGradient id="paint6_linear_299_106" x1="26.8227" y1="39.0238" x2="23.951" y2="46.1981" gradientUnits="userSpaceOnUse">
<stop stop-color="#FFC352"/>
<stop offset="0.02" stop-color="#E0A63C"/>
<stop offset="0.04" stop-color="#BD8422"/>
<stop offset="0.07" stop-color="#A36C0F"/>
<stop offset="0.09" stop-color="#935D04"/>
<stop offset="0.11" stop-color="#8E5800"/>
<stop offset="0.12" stop-color="#945F07"/>
<stop offset="0.2" stop-color="#C2983F"/>
<stop offset="0.27" stop-color="#E3C268"/>
<stop offset="0.32" stop-color="#F7DC81"/>
<stop offset="0.35" stop-color="#FFE58A"/>
<stop offset="0.5" stop-color="#D8B144"/>
<stop offset="0.61" stop-color="#BD8D13"/>
<stop offset="0.67" stop-color="#B37F00"/>
<stop offset="0.84" stop-color="#7C4400"/>
<stop offset="0.91" stop-color="#612700"/>
<stop offset="0.94" stop-color="#743B00"/>
<stop offset="0.99" stop-color="#A57000"/>
<stop offset="1" stop-color="#B37F00"/>
</linearGradient>
<linearGradient id="paint7_linear_299_106" x1="26.9769" y1="38.9577" x2="24.1052" y2="46.132" gradientUnits="userSpaceOnUse">
<stop stop-color="#D69220"/>
<stop offset="0.13" stop-color="#DFAA3E"/>
<stop offset="0.32" stop-color="#EAC862"/>
<stop offset="0.42" stop-color="#EED370"/>
<stop offset="0.56" stop-color="#EED16D"/>
<stop offset="0.69" stop-color="#EECD62"/>
<stop offset="0.81" stop-color="#EEC550"/>
<stop offset="0.93" stop-color="#EEBA37"/>
<stop offset="1" stop-color="#EEB122"/>
</linearGradient>
<linearGradient id="paint8_linear_299_106" x1="21.3764" y1="24.676" x2="36.4149" y2="16.1654" gradientUnits="userSpaceOnUse">
<stop stop-color="#FFC352"/>
<stop offset="0.02" stop-color="#E0A63C"/>
<stop offset="0.04" stop-color="#BD8422"/>
<stop offset="0.07" stop-color="#A36C0F"/>
<stop offset="0.09" stop-color="#935D04"/>
<stop offset="0.11" stop-color="#8E5800"/>
<stop offset="0.12" stop-color="#945F07"/>
<stop offset="0.2" stop-color="#C2983F"/>
<stop offset="0.27" stop-color="#E3C268"/>
<stop offset="0.32" stop-color="#F7DC81"/>
<stop offset="0.35" stop-color="#FFE58A"/>
<stop offset="0.5" stop-color="#D8B144"/>
<stop offset="0.61" stop-color="#BD8D13"/>
<stop offset="0.67" stop-color="#B37F00"/>
<stop offset="0.84" stop-color="#7C4400"/>
<stop offset="0.91" stop-color="#612700"/>
<stop offset="0.94" stop-color="#743B00"/>
<stop offset="0.99" stop-color="#A57000"/>
<stop offset="1" stop-color="#B37F00"/>
</linearGradient>
<linearGradient id="paint9_linear_299_106" x1="36.9457" y1="24.0965" x2="19.5932" y2="23.4062" gradientUnits="userSpaceOnUse">
<stop stop-color="#E7AF52"/>
<stop offset="0.16" stop-color="#F2CB7A"/>
<stop offset="0.33" stop-color="#FBE49E"/>
<stop offset="0.42" stop-color="#FFEDAC"/>
<stop offset="0.56" stop-color="#FFECA9"/>
<stop offset="0.68" stop-color="#FFE89E"/>
<stop offset="0.8" stop-color="#FFE18C"/>
<stop offset="0.91" stop-color="#FFD773"/>
<stop offset="1" stop-color="#FFCD59"/>
</linearGradient>
<linearGradient id="paint10_linear_299_106" x1="34.7424" y1="22.7717" x2="21.6731" y2="22.2518" gradientUnits="userSpaceOnUse">
<stop stop-color="#FFC352"/>
<stop offset="0.02" stop-color="#E0A63C"/>
<stop offset="0.04" stop-color="#BD8422"/>
<stop offset="0.07" stop-color="#A36C0F"/>
<stop offset="0.09" stop-color="#935D04"/>
<stop offset="0.11" stop-color="#8E5800"/>
<stop offset="0.12" stop-color="#945F07"/>
<stop offset="0.2" stop-color="#C2983F"/>
<stop offset="0.27" stop-color="#E3C268"/>
<stop offset="0.32" stop-color="#F7DC81"/>
<stop offset="0.35" stop-color="#FFE58A"/>
<stop offset="0.5" stop-color="#D8B144"/>
<stop offset="0.61" stop-color="#BD8D13"/>
<stop offset="0.67" stop-color="#B37F00"/>
<stop offset="0.84" stop-color="#7C4400"/>
<stop offset="0.91" stop-color="#612700"/>
<stop offset="0.94" stop-color="#743B00"/>
<stop offset="0.99" stop-color="#A57000"/>
<stop offset="1" stop-color="#B37F00"/>
</linearGradient>
<linearGradient id="paint11_linear_299_106" x1="34.843" y1="22.9816" x2="21.7737" y2="22.4617" gradientUnits="userSpaceOnUse">
<stop stop-color="#D69220"/>
<stop offset="0.13" stop-color="#DFAA3E"/>
<stop offset="0.32" stop-color="#EAC862"/>
<stop offset="0.42" stop-color="#EED370"/>
<stop offset="0.56" stop-color="#EED16D"/>
<stop offset="0.69" stop-color="#EECD62"/>
<stop offset="0.81" stop-color="#EEC550"/>
<stop offset="0.93" stop-color="#EEBA37"/>
<stop offset="1" stop-color="#EEB122"/>
</linearGradient>
</defs>
</svg>
