<svg width="92" height="69" viewBox="0 0 92 69" fill="none" xmlns="http://www.w3.org/2000/svg">
<g filter="url(#filter0_d_32_45)">
<path d="M0 7.74366C0 3.9264 3.0945 0.831909 6.91176 0.831909H64.752C68.5692 0.831909 71.6637 3.92641 71.6637 7.74367V48.4371H6.91175C3.09449 48.4371 0 45.3426 0 41.5253V7.74366Z" fill="white" shape-rendering="crispEdges"/>
<path d="M7.68039 15.9983V10.7864H9.63485C10.0352 10.7864 10.3712 10.856 10.6426 10.9951C10.9158 11.1342 11.1219 11.3293 11.261 11.5804C11.4018 11.8298 11.4722 12.1208 11.4722 12.4533C11.4722 12.7875 11.401 13.0776 11.2585 13.3236C11.1177 13.5679 10.9098 13.7571 10.635 13.8911C10.3601 14.0235 10.0225 14.0896 9.62212 14.0896H8.23008V13.3058H9.49488C9.72901 13.3058 9.92072 13.2736 10.07 13.2091C10.2193 13.1429 10.3296 13.0471 10.4009 12.9215C10.4738 12.7943 10.5103 12.6382 10.5103 12.4533C10.5103 12.2684 10.4738 12.1106 10.4009 11.9799C10.3279 11.8476 10.2168 11.7475 10.0675 11.6796C9.91818 11.6101 9.72561 11.5753 9.48979 11.5753H8.62453V15.9983H7.68039ZM10.3729 13.6366L11.6631 15.9983H10.6095L9.34219 13.6366H10.3729ZM13.9751 16.0746C13.5832 16.0746 13.2447 15.9932 12.9597 15.8303C12.6764 15.6658 12.4584 15.4333 12.3057 15.133C12.153 14.831 12.0767 14.4756 12.0767 14.0667C12.0767 13.6646 12.153 13.3118 12.3057 13.0081C12.4601 12.7027 12.6755 12.4652 12.9521 12.2955C13.2286 12.1241 13.5535 12.0385 13.9268 12.0385C14.1677 12.0385 14.395 12.0775 14.6088 12.1555C14.8243 12.2319 15.0143 12.3506 15.1789 12.5118C15.3451 12.673 15.4758 12.8783 15.5708 13.1277C15.6658 13.3754 15.7133 13.6706 15.7133 14.0133V14.2958H12.5093V13.6748H14.8302C14.8285 13.4984 14.7903 13.3414 14.7157 13.204C14.641 13.0649 14.5367 12.9555 14.4027 12.8757C14.2703 12.796 14.1159 12.7561 13.9395 12.7561C13.7512 12.7561 13.5858 12.8019 13.4432 12.8935C13.3007 12.9835 13.1896 13.1022 13.1099 13.2498C13.0318 13.3957 12.992 13.5561 12.9903 13.7308V14.2729C12.9903 14.5002 13.0318 14.6953 13.115 14.8582C13.1981 15.0194 13.3143 15.1432 13.4636 15.2297C13.6129 15.3146 13.7877 15.357 13.9879 15.357C14.1219 15.357 14.2432 15.3383 14.3518 15.301C14.4604 15.262 14.5545 15.2051 14.6343 15.1305C14.714 15.0558 14.7742 14.9634 14.8149 14.8531L15.6751 14.9498C15.6208 15.1771 15.5173 15.3756 15.3646 15.5453C15.2136 15.7133 15.0202 15.8439 14.7844 15.9372C14.5486 16.0288 14.2788 16.0746 13.9751 16.0746ZM19.5821 13.1226L18.7423 13.2142C18.7186 13.1294 18.677 13.0496 18.6176 12.975C18.5599 12.9003 18.4819 12.8401 18.3835 12.7943C18.2851 12.7485 18.1646 12.7256 18.0221 12.7256C17.8304 12.7256 17.6692 12.7672 17.5386 12.8503C17.4096 12.9334 17.346 13.0411 17.3477 13.1735C17.346 13.2872 17.3876 13.3796 17.4724 13.4509C17.5589 13.5221 17.7015 13.5807 17.9 13.6265L18.5667 13.769C18.9366 13.8487 19.2114 13.9751 19.3913 14.1482C19.5728 14.3212 19.6644 14.5477 19.6661 14.8276C19.6644 15.0737 19.5923 15.2908 19.4498 15.4791C19.309 15.6658 19.113 15.8117 18.8619 15.9169C18.6108 16.022 18.3224 16.0746 17.9967 16.0746C17.5182 16.0746 17.1331 15.9745 16.8413 15.7743C16.5495 15.5724 16.3756 15.2917 16.3196 14.932L17.2179 14.8455C17.2587 15.0219 17.3452 15.1551 17.4775 15.245C17.6098 15.3349 17.782 15.3799 17.9941 15.3799C18.213 15.3799 18.3886 15.3349 18.5209 15.245C18.6549 15.1551 18.722 15.044 18.722 14.9116C18.722 14.7997 18.6787 14.7072 18.5922 14.6342C18.5073 14.5613 18.375 14.5053 18.1952 14.4663L17.5284 14.3263C17.1535 14.2483 16.8761 14.1168 16.6962 13.9319C16.5164 13.7452 16.4273 13.5094 16.429 13.2244C16.4273 12.9835 16.4926 12.7748 16.625 12.5983C16.759 12.4202 16.9448 12.2828 17.1823 12.1861C17.4215 12.0877 17.6972 12.0385 18.0094 12.0385C18.4675 12.0385 18.828 12.136 19.091 12.3311C19.3556 12.5262 19.5193 12.7901 19.5821 13.1226ZM22.1563 16.0746C21.7643 16.0746 21.4259 15.9932 21.1409 15.8303C20.8575 15.6658 20.6395 15.4333 20.4868 15.133C20.3341 14.831 20.2578 14.4756 20.2578 14.0667C20.2578 13.6646 20.3341 13.3118 20.4868 13.0081C20.6412 12.7027 20.8567 12.4652 21.1332 12.2955C21.4098 12.1241 21.7347 12.0385 22.1079 12.0385C22.3488 12.0385 22.5762 12.0775 22.7899 12.1555C23.0054 12.2319 23.1954 12.3506 23.36 12.5118C23.5262 12.673 23.6569 12.8783 23.7519 13.1277C23.8469 13.3754 23.8944 13.6706 23.8944 14.0133V14.2958H20.6904V13.6748H23.0113C23.0096 13.4984 22.9715 13.3414 22.8968 13.204C22.8222 13.0649 22.7178 12.9555 22.5838 12.8757C22.4515 12.796 22.2971 12.7561 22.1206 12.7561C21.9323 12.7561 21.7669 12.8019 21.6244 12.8935C21.4819 12.9835 21.3707 13.1022 21.291 13.2498C21.213 13.3957 21.1731 13.5561 21.1714 13.7308V14.2729C21.1714 14.5002 21.213 14.6953 21.2961 14.8582C21.3792 15.0194 21.4954 15.1432 21.6447 15.2297C21.794 15.3146 21.9688 15.357 22.169 15.357C22.303 15.357 22.4243 15.3383 22.5329 15.301C22.6415 15.262 22.7356 15.2051 22.8154 15.1305C22.8951 15.0558 22.9553 14.9634 22.9961 14.8531L23.8562 14.9498C23.8019 15.1771 23.6985 15.3756 23.5458 15.5453C23.3948 15.7133 23.2014 15.8439 22.9655 15.9372C22.7297 16.0288 22.4599 16.0746 22.1563 16.0746ZM25.595 10.7864V15.9983H24.6738V10.7864H25.595ZM27.4636 10.7864V15.9983H26.5423V10.7864H27.4636ZM28.4109 15.9983V12.0894H29.3322V15.9983H28.4109ZM28.8741 11.5346C28.7282 11.5346 28.6026 11.4862 28.4974 11.3895C28.3923 11.2911 28.3397 11.1732 28.3397 11.0358C28.3397 10.8967 28.3923 10.7788 28.4974 10.6821C28.6026 10.5836 28.7282 10.5344 28.8741 10.5344C29.0217 10.5344 29.1472 10.5836 29.2507 10.6821C29.3559 10.7788 29.4085 10.8967 29.4085 11.0358C29.4085 11.1732 29.3559 11.2911 29.2507 11.3895C29.1472 11.4862 29.0217 11.5346 28.8741 11.5346ZM31.2007 13.7079V15.9983H30.2795V12.0894H31.16V12.7536H31.2058C31.2957 12.5347 31.4391 12.3608 31.6359 12.2319C31.8344 12.1029 32.0796 12.0385 32.3714 12.0385C32.6411 12.0385 32.8761 12.0962 33.0763 12.2115C33.2782 12.3269 33.4343 12.494 33.5446 12.7129C33.6565 12.9317 33.7117 13.1972 33.71 13.5094V15.9983H32.7887V13.6519C32.7887 13.3906 32.7209 13.1862 32.5851 13.0386C32.4511 12.891 32.2653 12.8172 32.0278 12.8172C31.8666 12.8172 31.7233 12.8528 31.5977 12.9241C31.4739 12.9936 31.3763 13.0946 31.3051 13.2269C31.2355 13.3593 31.2007 13.5196 31.2007 13.7079ZM36.3465 17.5456C36.0156 17.5456 35.7315 17.5006 35.4939 17.4107C35.2564 17.3225 35.0656 17.2037 34.9213 17.0544C34.7771 16.9051 34.677 16.7397 34.621 16.5582L35.4507 16.3571C35.488 16.4335 35.5423 16.509 35.6135 16.5836C35.6848 16.66 35.7807 16.7227 35.9011 16.7719C36.0233 16.8228 36.1768 16.8483 36.3617 16.8483C36.623 16.8483 36.8393 16.7847 37.0107 16.6574C37.182 16.5319 37.2677 16.3249 37.2677 16.0365V15.2959H37.2219C37.1744 15.3909 37.1048 15.4885 37.0132 15.5886C36.9233 15.6887 36.8037 15.7726 36.6544 15.8405C36.5068 15.9084 36.321 15.9423 36.0971 15.9423C35.7968 15.9423 35.5245 15.8719 35.2802 15.7311C35.0376 15.5886 34.8441 15.3765 34.6999 15.0949C34.5574 14.8115 34.4862 14.4569 34.4862 14.0311C34.4862 13.6019 34.5574 13.2396 34.6999 12.9444C34.8441 12.6475 35.0384 12.4227 35.2827 12.2701C35.527 12.1157 35.7993 12.0385 36.0996 12.0385C36.3287 12.0385 36.517 12.0775 36.6646 12.1555C36.8139 12.2319 36.9326 12.3243 37.0209 12.4329C37.1091 12.5398 37.1761 12.6408 37.2219 12.7358H37.2728V12.0894H38.1813V16.0619C38.1813 16.3961 38.1016 16.6727 37.9421 16.8915C37.7826 17.1104 37.5646 17.2741 37.2881 17.3827C37.0115 17.4913 36.6977 17.5456 36.3465 17.5456ZM36.3541 15.2196C36.5492 15.2196 36.7155 15.1721 36.8529 15.077C36.9903 14.982 37.0947 14.8455 37.1659 14.6673C37.2372 14.4892 37.2728 14.2754 37.2728 14.026C37.2728 13.78 37.2372 13.5645 37.1659 13.3796C37.0964 13.1947 36.9929 13.0513 36.8554 12.9495C36.7197 12.846 36.5526 12.7943 36.3541 12.7943C36.1488 12.7943 35.9775 12.8477 35.84 12.9546C35.7026 13.0615 35.5991 13.2083 35.5296 13.3949C35.46 13.5798 35.4252 13.7902 35.4252 14.026C35.4252 14.2652 35.46 14.4748 35.5296 14.6546C35.6008 14.8327 35.7052 14.9719 35.8426 15.072C35.9817 15.1704 36.1522 15.2196 36.3541 15.2196ZM40.9438 10.7864H42.0992L43.6464 14.563H43.7075L45.2548 10.7864H46.4102V15.9983H45.5042V12.4177H45.4558L44.0154 15.983H43.3385L41.8981 12.41H41.8498V15.9983H40.9438V10.7864ZM49.889 14.3543V12.0894H50.8103V15.9983H49.917V15.3035H49.8763C49.7881 15.5224 49.643 15.7014 49.4411 15.8405C49.2409 15.9796 48.9941 16.0492 48.7006 16.0492C48.4444 16.0492 48.2179 15.9924 48.0211 15.8787C47.826 15.7633 47.6733 15.5962 47.563 15.3773C47.4527 15.1568 47.3976 14.8904 47.3976 14.5783V12.0894H48.3188V14.4357C48.3188 14.6834 48.3867 14.8802 48.5224 15.0261C48.6581 15.1721 48.8363 15.245 49.0568 15.245C49.1926 15.245 49.3241 15.2119 49.4513 15.1458C49.5785 15.0796 49.6829 14.9812 49.7643 14.8506C49.8474 14.7182 49.889 14.5528 49.889 14.3543ZM53.2082 16.067C52.9011 16.067 52.6262 15.9881 52.3836 15.8303C52.141 15.6725 51.9493 15.4435 51.8085 15.1432C51.6677 14.8429 51.5973 14.4782 51.5973 14.0489C51.5973 13.6146 51.6685 13.2481 51.811 12.9495C51.9552 12.6492 52.1495 12.4227 52.3938 12.2701C52.6381 12.1157 52.9104 12.0385 53.2107 12.0385C53.4397 12.0385 53.6281 12.0775 53.7757 12.1555C53.9233 12.2319 54.0403 12.3243 54.1269 12.4329C54.2134 12.5398 54.2804 12.6408 54.3279 12.7358H54.3661V10.7864H55.2899V15.9983H54.3839V15.3824H54.3279C54.2804 15.4774 54.2117 15.5784 54.1218 15.6853C54.0319 15.7905 53.9131 15.8804 53.7655 15.955C53.6179 16.0297 53.4321 16.067 53.2082 16.067ZM53.4652 15.3112C53.6603 15.3112 53.8266 15.2586 53.964 15.1534C54.1014 15.0465 54.2058 14.8981 54.277 14.708C54.3483 14.518 54.3839 14.2966 54.3839 14.0438C54.3839 13.791 54.3483 13.5713 54.277 13.3847C54.2074 13.1981 54.104 13.053 53.9665 12.9495C53.8308 12.846 53.6637 12.7943 53.4652 12.7943C53.2599 12.7943 53.0886 12.8477 52.9511 12.9546C52.8137 13.0615 52.7102 13.2091 52.6407 13.3974C52.5711 13.5858 52.5363 13.8012 52.5363 14.0438C52.5363 14.2881 52.5711 14.5061 52.6407 14.6979C52.7119 14.8879 52.8163 15.038 52.9537 15.1483C53.0928 15.2569 53.2633 15.3112 53.4652 15.3112ZM57.3964 16.0772C57.1487 16.0772 56.9256 16.0331 56.7271 15.9448C56.5303 15.8549 56.3742 15.7226 56.2588 15.5478C56.1452 15.3731 56.0883 15.1576 56.0883 14.9015C56.0883 14.6809 56.129 14.4985 56.2105 14.3543C56.2919 14.2101 56.403 14.0947 56.5439 14.0082C56.6847 13.9217 56.8433 13.8564 57.0197 13.8122C57.1979 13.7664 57.382 13.7334 57.572 13.713C57.801 13.6892 57.9868 13.668 58.1293 13.6494C58.2718 13.629 58.3753 13.5985 58.4398 13.5578C58.506 13.5153 58.539 13.45 58.539 13.3618V13.3465C58.539 13.1548 58.4822 13.0064 58.3685 12.9012C58.2549 12.796 58.0911 12.7434 57.8774 12.7434C57.6517 12.7434 57.4727 12.7926 57.3404 12.891C57.2098 12.9894 57.1215 13.1056 57.0757 13.2396L56.2156 13.1175C56.2834 12.88 56.3954 12.6815 56.5515 12.522C56.7076 12.3608 56.8984 12.2404 57.1241 12.1606C57.3497 12.0792 57.5991 12.0385 57.8723 12.0385C58.0606 12.0385 58.2481 12.0605 58.4347 12.1046C58.6213 12.1487 58.7918 12.2217 58.9462 12.3235C59.1006 12.4236 59.2245 12.5602 59.3178 12.7332C59.4128 12.9063 59.4603 13.1226 59.4603 13.3822V15.9983H58.5747V15.4613H58.5441C58.4881 15.5699 58.4092 15.6717 58.3075 15.7667C58.2074 15.86 58.081 15.9355 57.9283 15.9932C57.7773 16.0492 57.6 16.0772 57.3964 16.0772ZM57.6356 15.4002C57.8205 15.4002 57.9809 15.3638 58.1166 15.2908C58.2523 15.2162 58.3567 15.1178 58.4296 14.9956C58.5043 14.8735 58.5416 14.7403 58.5416 14.5961V14.1354C58.5127 14.1592 58.4635 14.1813 58.394 14.2016C58.3261 14.222 58.2498 14.2398 58.1649 14.2551C58.0801 14.2703 57.9961 14.2839 57.913 14.2958C57.8299 14.3076 57.7578 14.3178 57.6967 14.3263C57.5593 14.345 57.4363 14.3755 57.3277 14.4179C57.2191 14.4603 57.1334 14.5197 57.0706 14.5961C57.0079 14.6707 56.9765 14.7674 56.9765 14.8862C56.9765 15.0558 57.0384 15.1839 57.1623 15.2705C57.2861 15.357 57.4439 15.4002 57.6356 15.4002ZM61.3079 13.7079V15.9983H60.3866V10.7864H61.2875V12.7536H61.3333C61.4249 12.533 61.5666 12.3591 61.7583 12.2319C61.9517 12.1029 62.1977 12.0385 62.4963 12.0385C62.7678 12.0385 63.0044 12.0953 63.2063 12.209C63.4082 12.3226 63.5643 12.4889 63.6746 12.7078C63.7866 12.9266 63.8425 13.1938 63.8425 13.5094V15.9983H62.9213V13.6519C62.9213 13.3889 62.8534 13.1845 62.7177 13.0386C62.5837 12.891 62.3954 12.8172 62.1528 12.8172C61.9899 12.8172 61.844 12.8528 61.715 12.9241C61.5878 12.9936 61.4877 13.0946 61.4147 13.2269C61.3435 13.3593 61.3079 13.5196 61.3079 13.7079Z" fill="black"/>
<path d="M8.90374 26.9983H7.38554L9.69883 20.2973H11.5246L13.8346 26.9983H12.3164L10.6379 21.8286H10.5855L8.90374 26.9983ZM8.80885 24.3643H12.3949V25.4703H8.80885V24.3643ZM16.9733 21.9725V23.0196H13.9467V21.9725H16.9733ZM14.6338 20.7684H16.0277V25.4539C16.0277 25.5826 16.0473 25.683 16.0866 25.7549C16.1258 25.8247 16.1804 25.8738 16.2502 25.9022C16.3221 25.9305 16.405 25.9447 16.4988 25.9447C16.5643 25.9447 16.6297 25.9393 16.6951 25.9284C16.7606 25.9153 16.8108 25.9054 16.8457 25.8989L17.0649 26.9361C16.9951 26.9579 16.8969 26.983 16.7704 27.0114C16.6439 27.0419 16.4901 27.0605 16.309 27.067C15.9731 27.0801 15.6786 27.0354 15.4256 26.9329C15.1748 26.8303 14.9795 26.6711 14.8399 26.4551C14.7003 26.2392 14.6316 25.9665 14.6338 25.6371V20.7684ZM21.1041 24.8584V21.9725H22.498V26.9983H21.1598V26.0854H21.1074C20.994 26.3799 20.8053 26.6166 20.5414 26.7954C20.2796 26.9743 19.96 27.0637 19.5827 27.0637C19.2467 27.0637 18.9512 26.9874 18.696 26.8347C18.4407 26.682 18.2412 26.465 18.0972 26.1836C17.9554 25.9022 17.8834 25.5652 17.8812 25.1725V21.9725H19.2751V24.9239C19.2773 25.2205 19.3569 25.455 19.514 25.6273C19.671 25.7997 19.8815 25.8858 20.1454 25.8858C20.3134 25.8858 20.4705 25.8476 20.6166 25.7713C20.7628 25.6928 20.8805 25.5772 20.97 25.4245C21.0616 25.2718 21.1063 25.0831 21.1041 24.8584ZM23.6129 26.9983V21.9725H24.9643V22.8494H25.0166C25.1082 22.5375 25.262 22.3019 25.478 22.1427C25.6939 21.9813 25.9426 21.9005 26.224 21.9005C26.2938 21.9005 26.369 21.9049 26.4497 21.9136C26.5304 21.9224 26.6013 21.9344 26.6624 21.9496V23.1864C26.597 23.1668 26.5064 23.1494 26.3908 23.1341C26.2752 23.1188 26.1694 23.1112 26.0735 23.1112C25.8684 23.1112 25.6852 23.1559 25.5238 23.2453C25.3645 23.3326 25.238 23.4547 25.1442 23.6118C25.0526 23.7688 25.0068 23.9499 25.0068 24.1549V26.9983H23.6129ZM33.6808 20.2973H35.0976V24.649C35.0976 25.1376 34.9809 25.5652 34.7475 25.9316C34.5163 26.2981 34.1923 26.5838 33.7757 26.7889C33.3591 26.9917 32.8737 27.0932 32.3197 27.0932C31.7634 27.0932 31.277 26.9917 30.8604 26.7889C30.4437 26.5838 30.1198 26.2981 29.8886 25.9316C29.6574 25.5652 29.5418 25.1376 29.5418 24.649V20.2973H30.9585V24.5279C30.9585 24.7832 31.0141 25.01 31.1254 25.2085C31.2388 25.407 31.3981 25.563 31.6031 25.6764C31.8081 25.7898 32.047 25.8466 32.3197 25.8466C32.5945 25.8466 32.8334 25.7898 33.0362 25.6764C33.2413 25.563 33.3994 25.407 33.5107 25.2085C33.6241 25.01 33.6808 24.7832 33.6808 24.5279V20.2973ZM37.6309 24.0928V26.9983H36.237V21.9725H37.5655V22.8592H37.6244C37.7356 22.5669 37.9221 22.3357 38.1839 22.1656C38.4456 21.9933 38.763 21.9071 39.136 21.9071C39.485 21.9071 39.7893 21.9834 40.0489 22.1361C40.3085 22.2888 40.5102 22.507 40.6542 22.7905C40.7982 23.0719 40.8702 23.4078 40.8702 23.7983V26.9983H39.4763V24.047C39.4785 23.7394 39.4 23.4995 39.2407 23.3271C39.0815 23.1526 38.8623 23.0654 38.583 23.0654C38.3955 23.0654 38.2297 23.1057 38.0857 23.1864C37.9439 23.2671 37.8327 23.3849 37.752 23.5398C37.6734 23.6925 37.6331 23.8768 37.6309 24.0928ZM44.6419 21.9725V23.0196H41.6154V21.9725H44.6419ZM42.3025 20.7684H43.6963V25.4539C43.6963 25.5826 43.716 25.683 43.7552 25.7549C43.7945 25.8247 43.849 25.8738 43.9188 25.9022C43.9908 25.9305 44.0737 25.9447 44.1675 25.9447C44.2329 25.9447 44.2984 25.9393 44.3638 25.9284C44.4293 25.9153 44.4794 25.9054 44.5143 25.8989L44.7336 26.9361C44.6638 26.9579 44.5656 26.983 44.4391 27.0114C44.3126 27.0419 44.1588 27.0605 43.9777 27.067C43.6418 27.0801 43.3473 27.0354 43.0943 26.9329C42.8434 26.8303 42.6482 26.6711 42.5086 26.4551C42.369 26.2392 42.3003 25.9665 42.3025 25.6371V20.7684ZM48.7728 24.8584V21.9725H50.1667V26.9983H48.8284V26.0854H48.7761C48.6627 26.3799 48.474 26.6166 48.21 26.7954C47.9483 26.9743 47.6287 27.0637 47.2513 27.0637C46.9154 27.0637 46.6198 26.9874 46.3646 26.8347C46.1094 26.682 45.9098 26.465 45.7659 26.1836C45.6241 25.9022 45.5521 25.5652 45.5499 25.1725V21.9725H46.9438V24.9239C46.946 25.2205 47.0256 25.455 47.1826 25.6273C47.3397 25.7997 47.5502 25.8858 47.8141 25.8858C47.9821 25.8858 48.1391 25.8476 48.2853 25.7713C48.4314 25.6928 48.5492 25.5772 48.6387 25.4245C48.7303 25.2718 48.775 25.0831 48.7728 24.8584ZM52.6755 24.0928V26.9983H51.2816V21.9725H52.61V22.8592H52.6689C52.7802 22.5669 52.9667 22.3357 53.2284 22.1656C53.4902 21.9933 53.8076 21.9071 54.1806 21.9071C54.5296 21.9071 54.8339 21.9834 55.0935 22.1361C55.353 22.2888 55.5548 22.507 55.6988 22.7905C55.8427 23.0719 55.9147 23.4078 55.9147 23.7983V26.9983H54.5209V24.047C54.523 23.7394 54.4445 23.4995 54.2853 23.3271C54.126 23.1526 53.9068 23.0654 53.6276 23.0654C53.44 23.0654 53.2742 23.1057 53.1303 23.1864C52.9885 23.2671 52.8772 23.3849 52.7965 23.5398C52.718 23.6925 52.6776 23.8768 52.6755 24.0928ZM59.2775 28.9877C58.826 28.9877 58.4388 28.9255 58.1159 28.8012C57.7953 28.679 57.5401 28.5121 57.3503 28.3005C57.1605 28.089 57.0373 27.8512 56.9806 27.5872L58.2697 27.4138C58.309 27.5142 58.3712 27.608 58.4562 27.6952C58.5413 27.7825 58.6536 27.8523 58.7932 27.9046C58.935 27.9592 59.1074 27.9864 59.3102 27.9864C59.6134 27.9864 59.8632 27.9123 60.0595 27.7639C60.258 27.6178 60.3573 27.3724 60.3573 27.0277V26.1083H60.2984C60.2373 26.2479 60.1457 26.3799 60.0235 26.5042C59.9014 26.6286 59.7443 26.73 59.5523 26.8085C59.3604 26.887 59.1314 26.9263 58.8652 26.9263C58.4879 26.9263 58.1443 26.8391 57.8346 26.6645C57.527 26.4879 57.2816 26.2185 57.0984 25.8564C56.9173 25.4921 56.8268 25.0318 56.8268 24.4756C56.8268 23.9063 56.9195 23.4307 57.1049 23.049C57.2903 22.6673 57.5368 22.3815 57.8444 22.1918C58.1541 22.002 58.4933 21.9071 58.862 21.9071C59.1433 21.9071 59.3789 21.9551 59.5687 22.0511C59.7585 22.1449 59.9112 22.2626 60.0268 22.4044C60.1446 22.544 60.2351 22.6815 60.2984 22.8167H60.3507V21.9725H61.7348V27.0474C61.7348 27.4749 61.6301 27.8326 61.4206 28.1206C61.2112 28.4085 60.9211 28.6245 60.5503 28.7684C60.1817 28.9146 59.7574 28.9877 59.2775 28.9877ZM59.3069 25.8793C59.5316 25.8793 59.7214 25.8237 59.8763 25.7124C60.0333 25.599 60.1533 25.4376 60.2362 25.2282C60.3213 25.0166 60.3638 24.7635 60.3638 24.4691C60.3638 24.1746 60.3224 23.9194 60.2395 23.7034C60.1566 23.4853 60.0366 23.3162 59.8795 23.1963C59.7225 23.0763 59.5316 23.0163 59.3069 23.0163C59.0779 23.0163 58.8849 23.0785 58.7278 23.2028C58.5708 23.3249 58.4519 23.4951 58.3712 23.7132C58.2905 23.9314 58.2501 24.1833 58.2501 24.4691C58.2501 24.7592 58.2905 25.01 58.3712 25.2216C58.4541 25.431 58.5729 25.5935 58.7278 25.7091C58.8849 25.8226 59.0779 25.8793 59.3069 25.8793ZM11.3839 33.2245C11.3577 32.9605 11.2454 32.7555 11.0469 32.6093C10.8484 32.4632 10.579 32.3901 10.2387 32.3901C10.0075 32.3901 9.81226 32.4228 9.65303 32.4883C9.49379 32.5515 9.37163 32.6399 9.28656 32.7533C9.20367 32.8667 9.16223 32.9954 9.16223 33.1394C9.15787 33.2594 9.18295 33.3641 9.23748 33.4535C9.2942 33.5429 9.37163 33.6204 9.46979 33.6858C9.56795 33.7491 9.68138 33.8047 9.81008 33.8527C9.93878 33.8985 10.0762 33.9378 10.2223 33.9705L10.8244 34.1145C11.1167 34.1799 11.385 34.2671 11.6293 34.3762C11.8736 34.4853 12.0852 34.6194 12.2641 34.7787C12.4429 34.9379 12.5814 35.1255 12.6796 35.3414C12.7799 35.5574 12.8312 35.805 12.8334 36.0842C12.8312 36.4943 12.7265 36.8498 12.5193 37.1508C12.3142 37.4497 12.0176 37.682 11.6293 37.8478C11.2432 38.0114 10.7775 38.0932 10.2322 38.0932C9.6912 38.0932 9.22003 38.0103 8.81867 37.8445C8.41949 37.6787 8.10756 37.4333 7.88288 37.1083C7.66039 36.7811 7.54369 36.3765 7.53278 35.8944H8.90374C8.91901 36.1191 8.98336 36.3067 9.09679 36.4572C9.2124 36.6055 9.36618 36.7179 9.55814 36.7942C9.75228 36.8684 9.9715 36.9054 10.2158 36.9054C10.4558 36.9054 10.6641 36.8705 10.8408 36.8007C11.0196 36.7309 11.1581 36.6339 11.2563 36.5095C11.3545 36.3852 11.4035 36.2423 11.4035 36.0809C11.4035 35.9304 11.3588 35.8039 11.2694 35.7014C11.1821 35.5988 11.0534 35.5116 10.8833 35.4396C10.7153 35.3676 10.5092 35.3022 10.2649 35.2433L9.53523 35.0601C8.97027 34.9226 8.52419 34.7078 8.19699 34.4155C7.8698 34.1232 7.70729 33.7294 7.70947 33.2343C7.70729 32.8286 7.81526 32.4741 8.0334 32.1709C8.25371 31.8677 8.55582 31.631 8.93973 31.4609C9.32365 31.2907 9.75991 31.2057 10.2485 31.2057C10.7459 31.2057 11.1799 31.2907 11.5508 31.4609C11.9238 31.631 12.2139 31.8677 12.4211 32.1709C12.6283 32.4741 12.7352 32.8253 12.7418 33.2245H11.3839ZM16.0506 38.0965C15.5336 38.0965 15.0886 37.9917 14.7156 37.7823C14.3448 37.5708 14.059 37.2719 13.8583 36.8858C13.6577 36.4975 13.5573 36.0384 13.5573 35.5083C13.5573 34.9913 13.6577 34.5376 13.8583 34.1472C14.059 33.7567 14.3415 33.4524 14.7058 33.2343C15.0722 33.0162 15.502 32.9071 15.9949 32.9071C16.3265 32.9071 16.6352 32.9605 16.9209 33.0674C17.2088 33.1721 17.4597 33.3303 17.6735 33.5419C17.8894 33.7534 18.0574 34.0196 18.1773 34.3402C18.2973 34.6587 18.3573 35.0317 18.3573 35.4592V35.8421H14.1136V34.9783H17.0452C17.0452 34.7776 17.0016 34.5998 16.9144 34.4449C16.8271 34.29 16.706 34.169 16.5512 34.0817C16.3985 33.9923 16.2207 33.9476 16.0178 33.9476C15.8063 33.9476 15.6187 33.9967 15.4551 34.0948C15.2936 34.1908 15.1671 34.3206 15.0755 34.4842C14.9839 34.6456 14.937 34.8256 14.9348 35.0241V35.8453C14.9348 36.094 14.9806 36.3089 15.0722 36.4899C15.166 36.671 15.298 36.8106 15.4682 36.9087C15.6383 37.0069 15.8401 37.056 16.0735 37.056C16.2283 37.056 16.3701 37.0341 16.4988 36.9905C16.6275 36.9469 16.7377 36.8815 16.8293 36.7942C16.9209 36.7069 16.9907 36.6001 17.0387 36.4735L18.3279 36.5586C18.2624 36.8684 18.1283 37.1389 17.9254 37.3701C17.7247 37.5991 17.4651 37.778 17.1467 37.9067C16.8304 38.0332 16.465 38.0965 16.0506 38.0965ZM23.4485 34.4057L22.1724 34.4842C22.1506 34.3751 22.1037 34.277 22.0317 34.1897C21.9598 34.1003 21.8649 34.0294 21.7471 33.977C21.6315 33.9225 21.493 33.8952 21.3315 33.8952C21.1156 33.8952 20.9334 33.941 20.7851 34.0327C20.6368 34.1221 20.5626 34.2421 20.5626 34.3926C20.5626 34.5125 20.6106 34.614 20.7066 34.6969C20.8026 34.7798 20.9673 34.8463 21.2007 34.8965L22.1103 35.0797C22.5989 35.18 22.9632 35.3414 23.2031 35.5639C23.4431 35.7864 23.563 36.0787 23.563 36.4408C23.563 36.7702 23.466 37.0592 23.2718 37.3079C23.0799 37.5566 22.8159 37.7507 22.48 37.8903C22.1463 38.0277 21.7613 38.0965 21.325 38.0965C20.6597 38.0965 20.1296 37.9579 19.7348 37.6809C19.3422 37.4017 19.112 37.0222 19.0444 36.5423L20.4154 36.4703C20.4568 36.6731 20.5572 36.828 20.7164 36.9349C20.8756 37.0396 21.0796 37.092 21.3283 37.092C21.5726 37.092 21.7689 37.0451 21.9172 36.9513C22.0677 36.8553 22.1441 36.732 22.1463 36.5815C22.1441 36.455 22.0906 36.3514 21.9859 36.2707C21.8812 36.1878 21.7198 36.1245 21.5017 36.0809L20.6313 35.9075C20.1405 35.8093 19.7752 35.6392 19.5352 35.3971C19.2975 35.1549 19.1786 34.8463 19.1786 34.4711C19.1786 34.1483 19.2658 33.8701 19.4403 33.6367C19.617 33.4033 19.8646 33.2234 20.1831 33.0969C20.5037 32.9703 20.8789 32.9071 21.3086 32.9071C21.9434 32.9071 22.4429 33.0412 22.8072 33.3095C23.1737 33.5778 23.3874 33.9432 23.4485 34.4057ZM27.6636 35.8584V32.9725H29.0575V37.9983H27.7193V37.0854H27.6669C27.5535 37.3799 27.3648 37.6166 27.1009 37.7954C26.8391 37.9743 26.5195 38.0637 26.1422 38.0637C25.8062 38.0637 25.5107 37.9874 25.2555 37.8347C25.0002 37.682 24.8007 37.465 24.6567 37.1836C24.5149 36.9022 24.4429 36.5652 24.4407 36.1725V32.9725H25.8346V35.9239C25.8368 36.2205 25.9164 36.455 26.0735 36.6273C26.2305 36.7997 26.441 36.8858 26.7049 36.8858C26.8729 36.8858 27.03 36.8476 27.1761 36.7713C27.3223 36.6928 27.44 36.5772 27.5295 36.4245C27.6211 36.2718 27.6658 36.0831 27.6636 35.8584ZM31.4354 36.5521L31.4387 34.8801H31.6415L33.2514 32.9725H34.8514L32.6886 35.4985H32.3581L31.4354 36.5521ZM30.1724 37.9983V31.2973H31.5663V37.9983H30.1724ZM33.3135 37.9983L31.8346 35.8093L32.7638 34.8245L34.9462 37.9983H33.3135ZM36.9683 38.0932C36.6477 38.0932 36.3619 38.0376 36.1111 37.9263C35.8602 37.8129 35.6617 37.646 35.5156 37.4257C35.3716 37.2032 35.2996 36.9262 35.2996 36.5946C35.2996 36.3154 35.3509 36.0809 35.4534 35.8911C35.5559 35.7014 35.6955 35.5487 35.8722 35.4331C36.0489 35.3174 36.2496 35.2302 36.4743 35.1713C36.7011 35.1124 36.9389 35.071 37.1876 35.047C37.4798 35.0164 37.7154 34.9881 37.8943 34.9619C38.0732 34.9335 38.203 34.8921 38.2837 34.8376C38.3644 34.783 38.4047 34.7023 38.4047 34.5954V34.5758C38.4047 34.3686 38.3393 34.2082 38.2084 34.0948C38.0797 33.9814 37.8965 33.9247 37.6587 33.9247C37.4079 33.9247 37.2083 33.9803 37.0599 34.0915C36.9116 34.2006 36.8135 34.338 36.7655 34.5038L35.4763 34.3991C35.5417 34.0937 35.6704 33.8298 35.8624 33.6073C36.0544 33.3826 36.3019 33.2103 36.6051 33.0903C36.9105 32.9682 37.2639 32.9071 37.6653 32.9071C37.9445 32.9071 38.2117 32.9398 38.4669 33.0053C38.7243 33.0707 38.9522 33.1721 39.1507 33.3095C39.3514 33.447 39.5096 33.6237 39.6252 33.8396C39.7408 34.0534 39.7986 34.3097 39.7986 34.6085V37.9983H38.4767V37.3014H38.4374C38.3567 37.4584 38.2488 37.5969 38.1135 37.7169C37.9783 37.8347 37.8158 37.9274 37.626 37.995C37.4362 38.0605 37.217 38.0932 36.9683 38.0932ZM37.3675 37.1312C37.5726 37.1312 37.7536 37.0909 37.9107 37.0102C38.0677 36.9273 38.191 36.816 38.2804 36.6764C38.3698 36.5368 38.4145 36.3787 38.4145 36.202V35.6686C38.3709 35.697 38.3109 35.7232 38.2346 35.7472C38.1604 35.769 38.0764 35.7897 37.9826 35.8093C37.8888 35.8268 37.795 35.8431 37.7013 35.8584C37.6075 35.8715 37.5224 35.8835 37.446 35.8944C37.2824 35.9184 37.1396 35.9566 37.0174 36.0089C36.8953 36.0613 36.8004 36.1322 36.7327 36.2216C36.6651 36.3089 36.6313 36.4179 36.6313 36.5488C36.6313 36.7386 36.7 36.8836 36.8374 36.984C36.9771 37.0821 37.1537 37.1312 37.3675 37.1312ZM40.88 37.9983V32.9725H42.2084V33.8592H42.2673C42.372 33.5648 42.5465 33.3324 42.7908 33.1623C43.0351 32.9922 43.3274 32.9071 43.6677 32.9071C44.0124 32.9071 44.3057 32.9933 44.5479 33.1656C44.79 33.3357 44.9514 33.5669 45.0321 33.8592H45.0845C45.187 33.5713 45.3724 33.3412 45.6407 33.1688C45.9112 32.9943 46.2308 32.9071 46.5994 32.9071C47.0684 32.9071 47.449 33.0565 47.7413 33.3554C48.0358 33.652 48.183 34.073 48.183 34.6183V37.9983H46.7924V34.8932C46.7924 34.614 46.7183 34.4046 46.57 34.265C46.4216 34.1254 46.2362 34.0556 46.0137 34.0556C45.7607 34.0556 45.5633 34.1363 45.4215 34.2977C45.2797 34.4569 45.2088 34.6674 45.2088 34.9292V37.9983H43.8575V34.8637C43.8575 34.6172 43.7866 34.4209 43.6448 34.2748C43.5052 34.1286 43.3209 34.0556 43.0918 34.0556C42.937 34.0556 42.7974 34.0948 42.673 34.1733C42.5509 34.2497 42.4538 34.3577 42.3818 34.4973C42.3098 34.6347 42.2738 34.7961 42.2738 34.9815V37.9983H40.88ZM52.507 35.8584V32.9725H53.9008V37.9983H52.5626V37.0854H52.5102C52.3968 37.3799 52.2081 37.6166 51.9442 37.7954C51.6824 37.9743 51.3629 38.0637 50.9855 38.0637C50.6496 38.0637 50.354 37.9874 50.0988 37.8347C49.8436 37.682 49.644 37.465 49.5 37.1836C49.3582 36.9022 49.2862 36.5652 49.2841 36.1725V32.9725H50.6779V35.9239C50.6801 36.2205 50.7597 36.455 50.9168 36.6273C51.0738 36.7997 51.2843 36.8858 51.5483 36.8858C51.7162 36.8858 51.8733 36.8476 52.0194 36.7713C52.1656 36.6928 52.2834 36.5772 52.3728 36.4245C52.4644 36.2718 52.5091 36.0831 52.507 35.8584Z" fill="url(#paint0_linear_32_45)"/>
</g>
<defs>
<filter id="filter0_d_32_45" x="0" y="0.831909" width="91.612" height="67.5535" filterUnits="userSpaceOnUse" color-interpolation-filters="sRGB">
<feFlood flood-opacity="0" result="BackgroundImageFix"/>
<feColorMatrix in="SourceAlpha" type="matrix" values="0 0 0 0 0 0 0 0 0 0 0 0 0 0 0 0 0 0 127 0" result="hardAlpha"/>
<feOffset dx="9.97416" dy="9.97416"/>
<feGaussianBlur stdDeviation="4.98708"/>
<feComposite in2="hardAlpha" operator="out"/>
<feColorMatrix type="matrix" values="0 0 0 0 0 0 0 0 0 0 0 0 0 0 0 0 0 0 0.1 0"/>
<feBlend mode="normal" in2="BackgroundImageFix" result="effect1_dropShadow_32_45"/>
<feBlend mode="normal" in="SourceGraphic" in2="effect1_dropShadow_32_45" result="shape"/>
</filter>
<linearGradient id="paint0_linear_32_45" x1="7.16632" y1="40.9983" x2="65.3" y2="8.23547" gradientUnits="userSpaceOnUse">
<stop stop-color="#EB2A2E"/>
<stop offset="1" stop-color="#CF1863"/>
</linearGradient>
</defs>
</svg>
