<svg width="105" height="71" viewBox="0 0 105 71" fill="none" xmlns="http://www.w3.org/2000/svg">
<g filter="url(#filter0_d_32_13)">
<rect x="16.0474" y="0.18512" width="88.5559" height="55.2838" rx="6.62893" fill="white" shape-rendering="crispEdges"/>
<path d="M27.1208 10.3773H28.0649V13.7824C28.0649 14.1556 27.9767 14.4839 27.8003 14.7672C27.6255 15.0506 27.3795 15.272 27.0622 15.4315C26.745 15.5892 26.3743 15.6681 25.9501 15.6681C25.5243 15.6681 25.1527 15.5892 24.8355 15.4315C24.5182 15.272 24.2722 15.0506 24.0975 14.7672C23.9227 14.4839 23.8353 14.1556 23.8353 13.7824V10.3773H24.7795V13.7035C24.7795 13.9206 24.827 14.1141 24.922 14.2837C25.0187 14.4534 25.1544 14.5866 25.3292 14.6833C25.5039 14.7783 25.7109 14.8258 25.9501 14.8258C26.1893 14.8258 26.3963 14.7783 26.5711 14.6833C26.7475 14.5866 26.8832 14.4534 26.9783 14.2837C27.0733 14.1141 27.1208 13.9206 27.1208 13.7035V10.3773ZM29.9717 13.2988V15.5892H29.0504V11.6803H29.9309V12.3445H29.9768C30.0667 12.1257 30.21 11.9518 30.4068 11.8228C30.6053 11.6939 30.8505 11.6294 31.1423 11.6294C31.4121 11.6294 31.647 11.6871 31.8472 11.8025C32.0491 11.9178 32.2052 12.0849 32.3155 12.3038C32.4275 12.5227 32.4826 12.7882 32.4809 13.1003V15.5892H31.5597V13.2429C31.5597 12.9816 31.4918 12.7771 31.3561 12.6295C31.222 12.4819 31.0363 12.4081 30.7987 12.4081C30.6376 12.4081 30.4942 12.4438 30.3687 12.515C30.2448 12.5846 30.1473 12.6855 30.076 12.8179C30.0064 12.9502 29.9717 13.1105 29.9717 13.2988ZM34.868 15.6579C34.5609 15.6579 34.2861 15.5791 34.0435 15.4213C33.8008 15.2635 33.6091 15.0345 33.4683 14.7342C33.3275 14.4339 33.2571 14.0691 33.2571 13.6399C33.2571 13.2055 33.3284 12.8391 33.4709 12.5405C33.6151 12.2402 33.8093 12.0137 34.0536 11.861C34.2979 11.7066 34.5702 11.6294 34.8705 11.6294C35.0996 11.6294 35.2879 11.6684 35.4355 11.7465C35.5831 11.8228 35.7002 11.9153 35.7867 12.0239C35.8732 12.1308 35.9402 12.2317 35.9877 12.3267H36.0259V10.3773H36.9497V15.5892H36.0437V14.9734H35.9877C35.9402 15.0684 35.8715 15.1693 35.7816 15.2762C35.6917 15.3814 35.5729 15.4713 35.4253 15.546C35.2777 15.6206 35.0919 15.6579 34.868 15.6579ZM35.125 14.9021C35.3201 14.9021 35.4864 14.8495 35.6238 14.7443C35.7612 14.6375 35.8656 14.489 35.9368 14.299C36.0081 14.109 36.0437 13.8876 36.0437 13.6348C36.0437 13.382 36.0081 13.1623 35.9368 12.9756C35.8673 12.789 35.7638 12.644 35.6264 12.5405C35.4906 12.437 35.3235 12.3852 35.125 12.3852C34.9197 12.3852 34.7484 12.4387 34.611 12.5456C34.4735 12.6524 34.3701 12.8001 34.3005 12.9884C34.2309 13.1767 34.1962 13.3922 34.1962 13.6348C34.1962 13.8791 34.2309 14.0971 34.3005 14.2888C34.3717 14.4788 34.4761 14.629 34.6135 14.7392C34.7526 14.8478 34.9231 14.9021 35.125 14.9021ZM40.4228 13.9452V11.6803H41.3441V15.5892H40.4508V14.8945H40.4101C40.3219 15.1133 40.1768 15.2923 39.9749 15.4315C39.7747 15.5706 39.5279 15.6401 39.2344 15.6401C38.9782 15.6401 38.7517 15.5833 38.5549 15.4696C38.3598 15.3543 38.2071 15.1871 38.0968 14.9683C37.9865 14.7477 37.9314 14.4814 37.9314 14.1692V11.6803H38.8526V14.0267C38.8526 14.2744 38.9205 14.4712 39.0562 14.6171C39.1919 14.763 39.3701 14.836 39.5906 14.836C39.7264 14.836 39.8579 14.8029 39.9851 14.7367C40.1123 14.6705 40.2167 14.5721 40.2981 14.4415C40.3813 14.3092 40.4228 14.1437 40.4228 13.9452ZM43.2126 13.2988V15.5892H42.2914V10.3773H43.1923V12.3445H43.2381C43.3297 12.124 43.4714 11.9501 43.6631 11.8228C43.8565 11.6939 44.1025 11.6294 44.4011 11.6294C44.6725 11.6294 44.9092 11.6862 45.1111 11.7999C45.313 11.9136 45.4691 12.0799 45.5794 12.2987C45.6913 12.5176 45.7473 12.7848 45.7473 13.1003V15.5892H44.8261V13.2429C44.8261 12.9799 44.7582 12.7755 44.6225 12.6295C44.4885 12.4819 44.3001 12.4081 44.0575 12.4081C43.8947 12.4081 43.7488 12.4438 43.6198 12.515C43.4926 12.5846 43.3925 12.6855 43.3195 12.8179C43.2483 12.9502 43.2126 13.1105 43.2126 13.2988ZM51.5535 12.7135L50.7137 12.8051C50.6899 12.7203 50.6483 12.6406 50.589 12.5659C50.5313 12.4913 50.4532 12.431 50.3548 12.3852C50.2564 12.3394 50.136 12.3165 49.9935 12.3165C49.8017 12.3165 49.6406 12.3581 49.5099 12.4412C49.381 12.5244 49.3174 12.6321 49.3191 12.7644C49.3174 12.8781 49.3589 12.9706 49.4438 13.0418C49.5303 13.1131 49.6728 13.1716 49.8713 13.2174L50.5381 13.3599C50.9079 13.4397 51.1828 13.5661 51.3626 13.7391C51.5441 13.9122 51.6357 14.1387 51.6374 14.4186C51.6357 14.6646 51.5636 14.8818 51.4211 15.0701C51.2803 15.2567 51.0844 15.4026 50.8333 15.5078C50.5822 15.613 50.2937 15.6656 49.968 15.6656C49.4896 15.6656 49.1044 15.5655 48.8126 15.3653C48.5208 15.1634 48.3469 14.8826 48.2909 14.5229L49.1893 14.4364C49.23 14.6129 49.3165 14.746 49.4488 14.836C49.5812 14.9259 49.7534 14.9708 49.9655 14.9708C50.1843 14.9708 50.3599 14.9259 50.4922 14.836C50.6263 14.746 50.6933 14.6349 50.6933 14.5026C50.6933 14.3906 50.65 14.2981 50.5635 14.2252C50.4787 14.1522 50.3463 14.0962 50.1665 14.0572L49.4997 13.9173C49.1248 13.8392 48.8474 13.7077 48.6676 13.5228C48.4877 13.3362 48.3987 13.1003 48.4004 12.8153C48.3987 12.5744 48.464 12.3657 48.5963 12.1893C48.7303 12.0111 48.9161 11.8737 49.1536 11.777C49.3929 11.6786 49.6686 11.6294 49.9807 11.6294C50.4388 11.6294 50.7993 11.727 51.0623 11.9221C51.327 12.1172 51.4907 12.381 51.5535 12.7135ZM54.1276 15.6656C53.7357 15.6656 53.3972 15.5841 53.1122 15.4213C52.8289 15.2567 52.6109 15.0243 52.4582 14.724C52.3055 14.422 52.2291 14.0666 52.2291 13.6577C52.2291 13.2556 52.3055 12.9027 52.4582 12.599C52.6125 12.2936 52.828 12.0561 53.1046 11.8864C53.3811 11.7151 53.706 11.6294 54.0792 11.6294C54.3202 11.6294 54.5475 11.6684 54.7613 11.7465C54.9767 11.8228 55.1668 11.9416 55.3313 12.1028C55.4976 12.2639 55.6282 12.4692 55.7232 12.7186C55.8182 12.9663 55.8657 13.2615 55.8657 13.6042V13.8867H52.6617V13.2658H54.9827C54.981 13.0893 54.9428 12.9324 54.8682 12.795C54.7935 12.6558 54.6892 12.5464 54.5551 12.4667C54.4228 12.3869 54.2684 12.3471 54.092 12.3471C53.9036 12.3471 53.7382 12.3929 53.5957 12.4845C53.4532 12.5744 53.3421 12.6932 53.2623 12.8408C53.1843 12.9867 53.1444 13.147 53.1427 13.3218V13.8638C53.1427 14.0912 53.1843 14.2863 53.2674 14.4491C53.3506 14.6103 53.4668 14.7342 53.6161 14.8207C53.7654 14.9055 53.9401 14.9479 54.1403 14.9479C54.2744 14.9479 54.3957 14.9293 54.5042 14.8919C54.6128 14.8529 54.707 14.7961 54.7867 14.7214C54.8665 14.6468 54.9267 14.5543 54.9674 14.444L55.8276 14.5407C55.7733 14.7681 55.6698 14.9666 55.5171 15.1362C55.3661 15.3042 55.1727 15.4348 54.9369 15.5282C54.701 15.6198 54.4313 15.6656 54.1276 15.6656ZM56.6451 15.5892V11.6803H57.5256V12.3445H57.5714C57.6529 12.1206 57.7878 11.9458 57.9761 11.8203C58.1644 11.693 58.3892 11.6294 58.6505 11.6294C58.9151 11.6294 59.1382 11.6939 59.3198 11.8228C59.503 11.9501 59.6319 12.124 59.7066 12.3445H59.7473C59.8338 12.1274 59.9797 11.9543 60.185 11.8254C60.392 11.6947 60.6372 11.6294 60.9205 11.6294C61.2802 11.6294 61.5737 11.7431 61.801 11.9704C62.0284 12.1978 62.142 12.5294 62.142 12.9655V15.5892H61.2183V13.108C61.2183 12.8654 61.1538 12.6881 61.0248 12.5761C60.8959 12.4624 60.7381 12.4056 60.5515 12.4056C60.3292 12.4056 60.1553 12.4752 60.0298 12.6143C59.9059 12.7517 59.844 12.9307 59.844 13.1512V15.5892H58.9406V13.0698C58.9406 12.8679 58.8795 12.7067 58.7574 12.5863C58.6369 12.4658 58.4791 12.4056 58.284 12.4056C58.1517 12.4056 58.0312 12.4395 57.9226 12.5074C57.8141 12.5736 57.7275 12.6677 57.6631 12.7899C57.5986 12.9103 57.5664 13.0511 57.5664 13.2123V15.5892H56.6451ZM65.5681 13.9452V11.6803H66.4893V15.5892H65.5961V14.8945H65.5554C65.4671 15.1133 65.3221 15.2923 65.1202 15.4315C64.92 15.5706 64.6731 15.6401 64.3796 15.6401C64.1234 15.6401 63.8969 15.5833 63.7001 15.4696C63.505 15.3543 63.3523 15.1871 63.2421 14.9683C63.1318 14.7477 63.0766 14.4814 63.0766 14.1692V11.6803H63.9979V14.0267C63.9979 14.2744 64.0658 14.4712 64.2015 14.6171C64.3372 14.763 64.5153 14.836 64.7359 14.836C64.8716 14.836 65.0031 14.8029 65.1304 14.7367C65.2576 14.6705 65.3619 14.5721 65.4434 14.4415C65.5265 14.3092 65.5681 14.1437 65.5681 13.9452ZM68.5615 15.6681C68.3138 15.6681 68.0907 15.624 67.8922 15.5358C67.6954 15.4459 67.5393 15.3135 67.4239 15.1388C67.3102 14.964 67.2534 14.7486 67.2534 14.4924C67.2534 14.2718 67.2941 14.0895 67.3756 13.9452C67.457 13.801 67.5681 13.6857 67.7089 13.5991C67.8498 13.5126 68.0084 13.4473 68.1848 13.4032C68.363 13.3574 68.5471 13.3243 68.7371 13.3039C68.9661 13.2802 69.1519 13.259 69.2944 13.2403C69.4369 13.22 69.5404 13.1894 69.6049 13.1487C69.671 13.1063 69.7041 13.041 69.7041 12.9527V12.9375C69.7041 12.7458 69.6473 12.5973 69.5336 12.4921C69.4199 12.3869 69.2562 12.3343 69.0425 12.3343C68.8168 12.3343 68.6378 12.3835 68.5055 12.4819C68.3749 12.5803 68.2866 12.6966 68.2408 12.8306L67.3807 12.7084C67.4485 12.4709 67.5605 12.2724 67.7166 12.1129C67.8727 11.9518 68.0635 11.8313 68.2892 11.7516C68.5148 11.6701 68.7642 11.6294 69.0374 11.6294C69.2257 11.6294 69.4132 11.6515 69.5998 11.6956C69.7864 11.7397 69.9569 11.8126 70.1113 11.9144C70.2657 12.0145 70.3895 12.1511 70.4829 12.3242C70.5779 12.4972 70.6254 12.7135 70.6254 12.9731V15.5892H69.7398V15.0523H69.7092C69.6532 15.1608 69.5743 15.2626 69.4725 15.3576C69.3724 15.451 69.246 15.5265 69.0934 15.5841C68.9424 15.6401 68.7651 15.6681 68.5615 15.6681ZM68.8007 14.9912C68.9856 14.9912 69.146 14.9547 69.2817 14.8818C69.4174 14.8071 69.5217 14.7087 69.5947 14.5866C69.6693 14.4644 69.7067 14.3312 69.7067 14.187V13.7264C69.6778 13.7501 69.6286 13.7722 69.5591 13.7926C69.4912 13.8129 69.4149 13.8307 69.33 13.846C69.2452 13.8613 69.1612 13.8748 69.0781 13.8867C68.995 13.8986 68.9229 13.9088 68.8618 13.9173C68.7244 13.9359 68.6013 13.9665 68.4928 14.0089C68.3842 14.0513 68.2985 14.1107 68.2357 14.187C68.173 14.2617 68.1416 14.3584 68.1416 14.4771C68.1416 14.6468 68.2035 14.7749 68.3274 14.8614C68.4512 14.9479 68.609 14.9912 68.8007 14.9912ZM73.3293 17.0551V11.6803H74.2353V12.3267H74.2887C74.3362 12.2317 74.4032 12.1308 74.4898 12.0239C74.5763 11.9153 74.6934 11.8228 74.841 11.7465C74.9886 11.6684 75.1769 11.6294 75.4059 11.6294C75.7079 11.6294 75.9802 11.7066 76.2228 11.861C76.4671 12.0137 76.6605 12.2402 76.8031 12.5405C76.9473 12.8391 77.0194 13.2055 77.0194 13.6399C77.0194 14.0691 76.949 14.4339 76.8081 14.7342C76.6673 15.0345 76.4756 15.2635 76.233 15.4213C75.9904 15.5791 75.7155 15.6579 75.4085 15.6579C75.1845 15.6579 74.9987 15.6206 74.8511 15.546C74.7035 15.4713 74.5848 15.3814 74.4949 15.2762C74.4066 15.1693 74.3379 15.0684 74.2887 14.9734H74.2505V17.0551H73.3293ZM74.2327 13.6348C74.2327 13.8876 74.2684 14.109 74.3396 14.299C74.4126 14.489 74.5169 14.6375 74.6526 14.7443C74.7901 14.8495 74.9563 14.9021 75.1514 14.9021C75.355 14.9021 75.5255 14.8478 75.6629 14.7392C75.8004 14.629 75.9039 14.4788 75.9734 14.2888C76.0447 14.0971 76.0803 13.8791 76.0803 13.6348C76.0803 13.3922 76.0455 13.1767 75.976 12.9884C75.9064 12.8001 75.8029 12.6524 75.6655 12.5456C75.5281 12.4387 75.3567 12.3852 75.1514 12.3852C74.9546 12.3852 74.7875 12.437 74.6501 12.5405C74.5127 12.644 74.4083 12.789 74.3371 12.9756C74.2675 13.1623 74.2327 13.382 74.2327 13.6348ZM77.8083 15.5892V11.6803H78.7015V12.3318H78.7422C78.8135 12.1062 78.9357 11.9323 79.1087 11.8101C79.2835 11.6862 79.4828 11.6243 79.7068 11.6243C79.7576 11.6243 79.8145 11.6269 79.8773 11.632C79.9417 11.6353 79.9952 11.6413 80.0376 11.6498V12.4972C79.9986 12.4836 79.9366 12.4718 79.8518 12.4616C79.7687 12.4497 79.6881 12.4438 79.61 12.4438C79.4421 12.4438 79.2911 12.4802 79.1571 12.5532C79.0247 12.6245 78.9204 12.7237 78.844 12.851C78.7677 12.9782 78.7295 13.1249 78.7295 13.2912V15.5892H77.8083ZM82.1937 15.6656C81.812 15.6656 81.4812 15.5816 81.2012 15.4136C80.9213 15.2457 80.7041 15.0107 80.5497 14.7087C80.397 14.4067 80.3207 14.0538 80.3207 13.65C80.3207 13.2463 80.397 12.8925 80.5497 12.5888C80.7041 12.2851 80.9213 12.0493 81.2012 11.8814C81.4812 11.7134 81.812 11.6294 82.1937 11.6294C82.5755 11.6294 82.9063 11.7134 83.1862 11.8814C83.4662 12.0493 83.6825 12.2851 83.8352 12.5888C83.9896 12.8925 84.0668 13.2463 84.0668 13.65C84.0668 14.0538 83.9896 14.4067 83.8352 14.7087C83.6825 15.0107 83.4662 15.2457 83.1862 15.4136C82.9063 15.5816 82.5755 15.6656 82.1937 15.6656ZM82.1988 14.9276C82.4058 14.9276 82.5789 14.8707 82.718 14.7571C82.8571 14.6417 82.9606 14.4873 83.0284 14.2939C83.098 14.1005 83.1328 13.885 83.1328 13.6475C83.1328 13.4083 83.098 13.192 83.0284 12.9986C82.9606 12.8034 82.8571 12.6482 82.718 12.5328C82.5789 12.4175 82.4058 12.3598 82.1988 12.3598C81.9867 12.3598 81.8103 12.4175 81.6695 12.5328C81.5304 12.6482 81.426 12.8034 81.3565 12.9986C81.2886 13.192 81.2547 13.4083 81.2547 13.6475C81.2547 13.885 81.2886 14.1005 81.3565 14.2939C81.426 14.4873 81.5304 14.6417 81.6695 14.7571C81.8103 14.8707 81.9867 14.9276 82.1988 14.9276ZM86.2992 15.6579C85.9922 15.6579 85.7173 15.5791 85.4747 15.4213C85.2321 15.2635 85.0404 15.0345 84.8996 14.7342C84.7587 14.4339 84.6883 14.0691 84.6883 13.6399C84.6883 13.2055 84.7596 12.8391 84.9021 12.5405C85.0463 12.2402 85.2406 12.0137 85.4849 11.861C85.7292 11.7066 86.0015 11.6294 86.3018 11.6294C86.5308 11.6294 86.7191 11.6684 86.8668 11.7465C87.0144 11.8228 87.1314 11.9153 87.2179 12.0239C87.3045 12.1308 87.3715 12.2317 87.419 12.3267H87.4572V10.3773H88.381V15.5892H87.475V14.9734H87.419C87.3715 15.0684 87.3028 15.1693 87.2129 15.2762C87.1229 15.3814 87.0042 15.4713 86.8566 15.546C86.709 15.6206 86.5232 15.6579 86.2992 15.6579ZM86.5563 14.9021C86.7514 14.9021 86.9176 14.8495 87.0551 14.7443C87.1925 14.6375 87.2968 14.489 87.3681 14.299C87.4393 14.109 87.475 13.8876 87.475 13.6348C87.475 13.382 87.4393 13.1623 87.3681 12.9756C87.2985 12.789 87.195 12.644 87.0576 12.5405C86.9219 12.437 86.7548 12.3852 86.5563 12.3852C86.351 12.3852 86.1796 12.4387 86.0422 12.5456C85.9048 12.6524 85.8013 12.8001 85.7317 12.9884C85.6622 13.1767 85.6274 13.3922 85.6274 13.6348C85.6274 13.8791 85.6622 14.0971 85.7317 14.2888C85.803 14.4788 85.9073 14.629 86.0448 14.7392C86.1839 14.8478 86.3544 14.9021 86.5563 14.9021ZM91.8541 13.9452V11.6803H92.7753V15.5892H91.8821V14.8945H91.8413C91.7531 15.1133 91.6081 15.2923 91.4062 15.4315C91.206 15.5706 90.9591 15.6401 90.6656 15.6401C90.4094 15.6401 90.1829 15.5833 89.9861 15.4696C89.791 15.3543 89.6383 15.1871 89.5281 14.9683C89.4178 14.7477 89.3626 14.4814 89.3626 14.1692V11.6803H90.2839V14.0267C90.2839 14.2744 90.3517 14.4712 90.4875 14.6171C90.6232 14.763 90.8013 14.836 91.0219 14.836C91.1576 14.836 91.2891 14.8029 91.4163 14.7367C91.5436 14.6705 91.6479 14.5721 91.7294 14.4415C91.8125 14.3092 91.8541 14.1437 91.8541 13.9452ZM94.5624 14.3626L94.5599 13.2505H94.7075L96.1123 11.6803H97.1888L95.4608 13.6042H95.2699L94.5624 14.3626ZM93.7226 15.5892V10.3773H94.6439V15.5892H93.7226ZM96.1759 15.5892L94.9035 13.8104L95.5244 13.1614L97.2778 15.5892H96.1759ZM32.2986 20.3773H33.2351V24.042C33.2334 24.3779 33.1622 24.6671 33.0214 24.9098C32.8806 25.1507 32.6838 25.3364 32.431 25.4671C32.1799 25.596 31.8872 25.6605 31.553 25.6605C31.2476 25.6605 30.9728 25.6062 30.7284 25.4976C30.4858 25.3873 30.2933 25.2245 30.1508 25.009C30.0082 24.7935 29.937 24.5255 29.937 24.2048H30.876C30.8777 24.3456 30.9083 24.4669 30.9677 24.5687C31.0287 24.6705 31.1127 24.7486 31.2196 24.8029C31.3265 24.8572 31.4495 24.8843 31.5886 24.8843C31.7396 24.8843 31.8677 24.8529 31.9729 24.7901C32.0781 24.7257 32.1578 24.6307 32.2121 24.5051C32.2681 24.3796 32.2969 24.2252 32.2986 24.042V20.3773ZM36.7102 23.9452V21.6803H37.6314V25.5892H36.7382V24.8945H36.6974C36.6092 25.1133 36.4642 25.2923 36.2623 25.4315C36.0621 25.5706 35.8152 25.6401 35.5217 25.6401C35.2655 25.6401 35.039 25.5833 34.8422 25.4696C34.6471 25.3543 34.4944 25.1871 34.3842 24.9683C34.2739 24.7477 34.2187 24.4814 34.2187 24.1692V21.6803H35.14V24.0267C35.14 24.2744 35.2078 24.4712 35.3436 24.6171C35.4793 24.763 35.6574 24.836 35.878 24.836C36.0137 24.836 36.1452 24.8029 36.2725 24.7367C36.3997 24.6705 36.504 24.5721 36.5855 24.4415C36.6686 24.3092 36.7102 24.1437 36.7102 23.9452ZM39.7036 25.6681C39.4559 25.6681 39.2328 25.624 39.0343 25.5358C38.8375 25.4459 38.6814 25.3135 38.566 25.1388C38.4523 24.964 38.3955 24.7486 38.3955 24.4924C38.3955 24.2718 38.4362 24.0895 38.5177 23.9452C38.5991 23.801 38.7102 23.6857 38.851 23.5991C38.9919 23.5126 39.1505 23.4473 39.3269 23.4032C39.5051 23.3574 39.6892 23.3243 39.8792 23.3039C40.1082 23.2802 40.294 23.259 40.4365 23.2403C40.579 23.22 40.6825 23.1894 40.747 23.1487C40.8131 23.1063 40.8462 23.041 40.8462 22.9527V22.9375C40.8462 22.7458 40.7894 22.5973 40.6757 22.4921C40.562 22.3869 40.3983 22.3343 40.1846 22.3343C39.9589 22.3343 39.7799 22.3835 39.6476 22.4819C39.517 22.5803 39.4287 22.6966 39.3829 22.8306L38.5228 22.7084C38.5906 22.4709 38.7026 22.2724 38.8587 22.1129C39.0148 21.9518 39.2056 21.8313 39.4313 21.7516C39.6569 21.6701 39.9063 21.6294 40.1795 21.6294C40.3678 21.6294 40.5553 21.6515 40.7419 21.6956C40.9285 21.7397 41.099 21.8126 41.2534 21.9144C41.4078 22.0145 41.5316 22.1511 41.625 22.3242C41.72 22.4972 41.7675 22.7135 41.7675 22.9731V25.5892H40.8819V25.0523H40.8513C40.7953 25.1608 40.7164 25.2626 40.6146 25.3576C40.5145 25.451 40.3881 25.5265 40.2355 25.5841C40.0845 25.6401 39.9072 25.6681 39.7036 25.6681ZM39.9428 24.9912C40.1277 24.9912 40.288 24.9547 40.4238 24.8818C40.5595 24.8071 40.6638 24.7087 40.7368 24.5866C40.8114 24.4644 40.8488 24.3312 40.8488 24.187V23.7264C40.8199 23.7501 40.7707 23.7722 40.7012 23.7926C40.6333 23.8129 40.557 23.8307 40.4721 23.846C40.3873 23.8613 40.3033 23.8748 40.2202 23.8867C40.1371 23.8986 40.0649 23.9088 40.0039 23.9173C39.8664 23.9359 39.7434 23.9665 39.6349 24.0089C39.5263 24.0513 39.4406 24.1107 39.3778 24.187C39.3151 24.2617 39.2837 24.3584 39.2837 24.4771C39.2837 24.6468 39.3456 24.7749 39.4694 24.8614C39.5933 24.9479 39.7511 24.9912 39.9428 24.9912ZM43.615 20.3773V25.5892H42.6938V20.3773H43.615ZM47.7905 25.6579C47.4835 25.6579 47.2086 25.5791 46.966 25.4213C46.7234 25.2635 46.5317 25.0345 46.3909 24.7342C46.25 24.4339 46.1796 24.0691 46.1796 23.6399C46.1796 23.2055 46.2509 22.8391 46.3934 22.5405C46.5376 22.2402 46.7319 22.0137 46.9762 21.861C47.2205 21.7066 47.4928 21.6294 47.7931 21.6294C48.0221 21.6294 48.2104 21.6684 48.3581 21.7465C48.5057 21.8228 48.6227 21.9153 48.7092 22.0239C48.7958 22.1308 48.8628 22.2317 48.9103 22.3267H48.9485V20.3773H49.8723V25.5892H48.9663V24.9734H48.9103C48.8628 25.0684 48.7941 25.1693 48.7042 25.2762C48.6142 25.3814 48.4955 25.4713 48.3479 25.546C48.2003 25.6206 48.0145 25.6579 47.7905 25.6579ZM48.0476 24.9021C48.2427 24.9021 48.4089 24.8495 48.5464 24.7443C48.6838 24.6375 48.7881 24.489 48.8594 24.299C48.9306 24.109 48.9663 23.8876 48.9663 23.6348C48.9663 23.382 48.9306 23.1623 48.8594 22.9756C48.7898 22.789 48.6863 22.644 48.5489 22.5405C48.4132 22.437 48.2461 22.3852 48.0476 22.3852C47.8423 22.3852 47.6709 22.4387 47.5335 22.5456C47.3961 22.6524 47.2926 22.8001 47.223 22.9884C47.1535 23.1767 47.1187 23.3922 47.1187 23.6348C47.1187 23.8791 47.1535 24.0971 47.223 24.2888C47.2943 24.4788 47.3986 24.629 47.5361 24.7392C47.6752 24.8478 47.8457 24.9021 48.0476 24.9021ZM50.8539 25.5892V21.6803H51.7752V25.5892H50.8539ZM51.3171 21.1255C51.1712 21.1255 51.0457 21.0772 50.9405 20.9805C50.8353 20.8821 50.7827 20.7642 50.7827 20.6267C50.7827 20.4876 50.8353 20.3697 50.9405 20.273C51.0457 20.1746 51.1712 20.1254 51.3171 20.1254C51.4647 20.1254 51.5903 20.1746 51.6937 20.273C51.7989 20.3697 51.8515 20.4876 51.8515 20.6267C51.8515 20.7642 51.7989 20.8821 51.6937 20.9805C51.5903 21.0772 51.4647 21.1255 51.3171 21.1255ZM54.6744 21.6803V22.3929H52.4273V21.6803H54.6744ZM52.9821 20.7438H53.9033V24.4135C53.9033 24.5374 53.922 24.6324 53.9593 24.6985C53.9983 24.763 54.0492 24.8071 54.112 24.8309C54.1748 24.8546 54.2443 24.8665 54.3207 24.8665C54.3784 24.8665 54.431 24.8622 54.4785 24.8538C54.5277 24.8453 54.565 24.8376 54.5904 24.8309L54.7457 25.5511C54.6965 25.568 54.6261 25.5867 54.5345 25.607C54.4445 25.6274 54.3343 25.6393 54.2036 25.6427C53.9729 25.6495 53.7651 25.6147 53.5801 25.5383C53.3952 25.4603 53.2484 25.3398 53.1399 25.177C53.033 25.0141 52.9804 24.8105 52.9821 24.5662V20.7438ZM57.1334 25.6656C56.7415 25.6656 56.403 25.5841 56.118 25.4213C55.8347 25.2567 55.6167 25.0243 55.464 24.724C55.3113 24.422 55.2349 24.0666 55.2349 23.6577C55.2349 23.2556 55.3113 22.9027 55.464 22.599C55.6184 22.2936 55.8338 22.0561 56.1104 21.8864C56.3869 21.7151 56.7118 21.6294 57.0851 21.6294C57.326 21.6294 57.5533 21.6684 57.7671 21.7465C57.9825 21.8228 58.1726 21.9416 58.3371 22.1028C58.5034 22.2639 58.634 22.4692 58.729 22.7186C58.8241 22.9663 58.8716 23.2615 58.8716 23.6042V23.8867H55.6676V23.2658H57.9885C57.9868 23.0893 57.9486 22.9324 57.874 22.795C57.7993 22.6558 57.695 22.5464 57.5609 22.4667C57.4286 22.3869 57.2742 22.3471 57.0978 22.3471C56.9095 22.3471 56.744 22.3929 56.6015 22.4845C56.459 22.5744 56.3479 22.6932 56.2682 22.8408C56.1901 22.9867 56.1502 23.147 56.1485 23.3218V23.8638C56.1485 24.0912 56.1901 24.2863 56.2732 24.4491C56.3564 24.6103 56.4726 24.7342 56.6219 24.8207C56.7712 24.9055 56.9459 24.9479 57.1461 24.9479C57.2802 24.9479 57.4015 24.9293 57.5101 24.8919C57.6186 24.8529 57.7128 24.7961 57.7925 24.7214C57.8723 24.6468 57.9325 24.5543 57.9732 24.444L58.8334 24.5407C58.7791 24.7681 58.6756 24.9666 58.5229 25.1362C58.3719 25.3042 58.1785 25.4348 57.9427 25.5282C57.7069 25.6198 57.4371 25.6656 57.1334 25.6656ZM59.6509 25.5892V21.6803H60.5315V22.3445H60.5773C60.6587 22.1206 60.7936 21.9458 60.9819 21.8203C61.1702 21.693 61.395 21.6294 61.6563 21.6294C61.921 21.6294 62.1441 21.6939 62.3256 21.8228C62.5088 21.9501 62.6378 22.124 62.7124 22.3445H62.7531C62.8397 22.1274 62.9856 21.9543 63.1908 21.8254C63.3978 21.6947 63.643 21.6294 63.9263 21.6294C64.286 21.6294 64.5795 21.7431 64.8068 21.9704C65.0342 22.1978 65.1479 22.5294 65.1479 22.9655V25.5892H64.2241V23.108C64.2241 22.8654 64.1596 22.6881 64.0307 22.5761C63.9017 22.4624 63.7439 22.4056 63.5573 22.4056C63.3351 22.4056 63.1612 22.4752 63.0356 22.6143C62.9118 22.7517 62.8498 22.9307 62.8498 23.1512V25.5892H61.9464V23.0698C61.9464 22.8679 61.8853 22.7067 61.7632 22.5863C61.6427 22.4658 61.4849 22.4056 61.2898 22.4056C61.1575 22.4056 61.037 22.4395 60.9285 22.5074C60.8199 22.5736 60.7333 22.6677 60.6689 22.7899C60.6044 22.9103 60.5722 23.0511 60.5722 23.2123V25.5892H59.6509ZM66.0825 27.0551V21.6803H66.9884V22.3267H67.0419C67.0894 22.2317 67.1564 22.1308 67.2429 22.0239C67.3294 21.9153 67.4465 21.8228 67.5941 21.7465C67.7417 21.6684 67.93 21.6294 68.1591 21.6294C68.4611 21.6294 68.7334 21.7066 68.976 21.861C69.2203 22.0137 69.4137 22.2402 69.5562 22.5405C69.7004 22.8391 69.7725 23.2055 69.7725 23.6399C69.7725 24.0691 69.7021 24.4339 69.5613 24.7342C69.4205 25.0345 69.2288 25.2635 68.9862 25.4213C68.7435 25.5791 68.4687 25.6579 68.1616 25.6579C67.9377 25.6579 67.7519 25.6206 67.6043 25.546C67.4567 25.4713 67.3379 25.3814 67.248 25.2762C67.1598 25.1693 67.0911 25.0684 67.0419 24.9734H67.0037V27.0551H66.0825ZM66.9859 23.6348C66.9859 23.8876 67.0215 24.109 67.0928 24.299C67.1657 24.489 67.2701 24.6375 67.4058 24.7443C67.5432 24.8495 67.7095 24.9021 67.9046 24.9021C68.1082 24.9021 68.2787 24.8478 68.4161 24.7392C68.5535 24.629 68.657 24.4788 68.7266 24.2888C68.7978 24.0971 68.8335 23.8791 68.8335 23.6348C68.8335 23.3922 68.7987 23.1767 68.7291 22.9884C68.6596 22.8001 68.5561 22.6524 68.4186 22.5456C68.2812 22.4387 68.1099 22.3852 67.9046 22.3852C67.7078 22.3852 67.5407 22.437 67.4032 22.5405C67.2658 22.644 67.1615 22.789 67.0902 22.9756C67.0207 23.1623 66.9859 23.382 66.9859 23.6348ZM71.6863 25.6681C71.4386 25.6681 71.2155 25.624 71.017 25.5358C70.8202 25.4459 70.6641 25.3135 70.5487 25.1388C70.435 24.964 70.3782 24.7486 70.3782 24.4924C70.3782 24.2718 70.4189 24.0895 70.5004 23.9452C70.5818 23.801 70.6929 23.6857 70.8337 23.5991C70.9745 23.5126 71.1332 23.4473 71.3096 23.4032C71.4878 23.3574 71.6718 23.3243 71.8619 23.3039C72.0909 23.2802 72.2767 23.259 72.4192 23.2403C72.5617 23.22 72.6652 23.1894 72.7297 23.1487C72.7958 23.1063 72.8289 23.041 72.8289 22.9527V22.9375C72.8289 22.7458 72.7721 22.5973 72.6584 22.4921C72.5447 22.3869 72.381 22.3343 72.1672 22.3343C71.9416 22.3343 71.7626 22.3835 71.6303 22.4819C71.4996 22.5803 71.4114 22.6966 71.3656 22.8306L70.5054 22.7084C70.5733 22.4709 70.6853 22.2724 70.8414 22.1129C70.9975 21.9518 71.1883 21.8313 71.414 21.7516C71.6396 21.6701 71.889 21.6294 72.1622 21.6294C72.3505 21.6294 72.5379 21.6515 72.7246 21.6956C72.9112 21.7397 73.0817 21.8126 73.2361 21.9144C73.3905 22.0145 73.5143 22.1511 73.6076 22.3242C73.7027 22.4972 73.7502 22.7135 73.7502 22.9731V25.5892H72.8645V25.0523H72.834C72.778 25.1608 72.6991 25.2626 72.5973 25.3576C72.4972 25.451 72.3708 25.5265 72.2181 25.5841C72.0671 25.6401 71.8899 25.6681 71.6863 25.6681ZM71.9255 24.9912C72.1104 24.9912 72.2707 24.9547 72.4065 24.8818C72.5422 24.8071 72.6465 24.7087 72.7195 24.5866C72.7941 24.4644 72.8315 24.3312 72.8315 24.187V23.7264C72.8026 23.7501 72.7534 23.7722 72.6839 23.7926C72.616 23.8129 72.5396 23.8307 72.4548 23.846C72.37 23.8613 72.286 23.8748 72.2029 23.8867C72.1197 23.8986 72.0476 23.9088 71.9866 23.9173C71.8491 23.9359 71.7261 23.9665 71.6176 24.0089C71.509 24.0513 71.4233 24.1107 71.3605 24.187C71.2977 24.2617 71.2664 24.3584 71.2664 24.4771C71.2664 24.6468 71.3283 24.7749 71.4521 24.8614C71.576 24.9479 71.7338 24.9912 71.9255 24.9912ZM76.6284 21.6803V22.3929H74.3813V21.6803H76.6284ZM74.9361 20.7438H75.8573V24.4135C75.8573 24.5374 75.876 24.6324 75.9133 24.6985C75.9523 24.763 76.0032 24.8071 76.066 24.8309C76.1288 24.8546 76.1983 24.8665 76.2747 24.8665C76.3324 24.8665 76.3849 24.8622 76.4325 24.8538C76.4817 24.8453 76.519 24.8376 76.5444 24.8309L76.6997 25.5511C76.6505 25.568 76.5801 25.5867 76.4884 25.607C76.3985 25.6274 76.2882 25.6393 76.1576 25.6427C75.9269 25.6495 75.719 25.6147 75.5341 25.5383C75.3492 25.4603 75.2024 25.3398 75.0938 25.177C74.987 25.0141 74.9344 24.8105 74.9361 24.5662V20.7438ZM80.0977 20.3773V25.5892H79.1765V20.3773H80.0977ZM82.1699 25.6681C81.9222 25.6681 81.6991 25.624 81.5006 25.5358C81.3038 25.4459 81.1477 25.3135 81.0323 25.1388C80.9186 24.964 80.8618 24.7486 80.8618 24.4924C80.8618 24.2718 80.9025 24.0895 80.984 23.9452C81.0654 23.801 81.1765 23.6857 81.3173 23.5991C81.4582 23.5126 81.6168 23.4473 81.7932 23.4032C81.9714 23.3574 82.1554 23.3243 82.3455 23.3039C82.5745 23.2802 82.7603 23.259 82.9028 23.2403C83.0453 23.22 83.1488 23.1894 83.2133 23.1487C83.2794 23.1063 83.3125 23.041 83.3125 22.9527V22.9375C83.3125 22.7458 83.2557 22.5973 83.142 22.4921C83.0283 22.3869 82.8646 22.3343 82.6509 22.3343C82.4252 22.3343 82.2462 22.3835 82.1139 22.4819C81.9832 22.5803 81.895 22.6966 81.8492 22.8306L80.989 22.7084C81.0569 22.4709 81.1689 22.2724 81.325 22.1129C81.4811 21.9518 81.6719 21.8313 81.8976 21.7516C82.1232 21.6701 82.3726 21.6294 82.6458 21.6294C82.8341 21.6294 83.0216 21.6515 83.2082 21.6956C83.3948 21.7397 83.5653 21.8126 83.7197 21.9144C83.8741 22.0145 83.9979 22.1511 84.0912 22.3242C84.1863 22.4972 84.2338 22.7135 84.2338 22.9731V25.5892H83.3481V25.0523H83.3176C83.2616 25.1608 83.1827 25.2626 83.0809 25.3576C82.9808 25.451 82.8544 25.5265 82.7017 25.5841C82.5508 25.6401 82.3735 25.6681 82.1699 25.6681ZM82.4091 24.9912C82.594 24.9912 82.7543 24.9547 82.8901 24.8818C83.0258 24.8071 83.1301 24.7087 83.2031 24.5866C83.2777 24.4644 83.3151 24.3312 83.3151 24.187V23.7264C83.2862 23.7501 83.237 23.7722 83.1675 23.7926C83.0996 23.8129 83.0233 23.8307 82.9384 23.846C82.8536 23.8613 82.7696 23.8748 82.6865 23.8867C82.6033 23.8986 82.5312 23.9088 82.4702 23.9173C82.3327 23.9359 82.2097 23.9665 82.1012 24.0089C81.9926 24.0513 81.9069 24.1107 81.8441 24.187C81.7814 24.2617 81.75 24.3584 81.75 24.4771C81.75 24.6468 81.8119 24.7749 81.9357 24.8614C82.0596 24.9479 82.2174 24.9912 82.4091 24.9912ZM85.1601 25.5892V21.6803H86.0813V25.5892H85.1601ZM85.6233 21.1255C85.4774 21.1255 85.3518 21.0772 85.2466 20.9805C85.1414 20.8821 85.0888 20.7642 85.0888 20.6267C85.0888 20.4876 85.1414 20.3697 85.2466 20.273C85.3518 20.1746 85.4774 20.1254 85.6233 20.1254C85.7709 20.1254 85.8964 20.1746 85.9999 20.273C86.1051 20.3697 86.1577 20.4876 86.1577 20.6267C86.1577 20.7642 86.1051 20.8821 85.9999 20.9805C85.8964 21.0772 85.7709 21.1255 85.6233 21.1255ZM87.9499 23.2988V25.5892H87.0287V21.6803H87.9092V22.3445H87.955C88.0449 22.1257 88.1883 21.9518 88.3851 21.8228C88.5836 21.6939 88.8287 21.6294 89.1206 21.6294C89.3903 21.6294 89.6253 21.6871 89.8255 21.8025C90.0274 21.9178 90.1835 22.0849 90.2937 22.3038C90.4057 22.5227 90.4609 22.7882 90.4592 23.1003V25.5892H89.5379V23.2429C89.5379 22.9816 89.47 22.7771 89.3343 22.6295C89.2003 22.4819 89.0145 22.4081 88.777 22.4081C88.6158 22.4081 88.4725 22.4438 88.3469 22.515C88.2231 22.5846 88.1255 22.6855 88.0543 22.8179C87.9847 22.9502 87.9499 23.1105 87.9499 23.2988Z" fill="black"/>
<path d="M32.0767 36.2557H35.4348C35.5373 35.1337 35.854 34.1262 36.3089 33.3474C36.9109 32.3179 37.7672 31.6843 38.7349 31.6843C39.7026 31.6843 40.5544 32.3223 41.1609 33.3474C41.6158 34.1218 41.9324 35.1337 42.035 36.2557H45.3886C45.7856 36.2557 46.1423 36.5768 46.1111 36.9684L45.4377 46.2387C45.353 47.4002 44.6127 48.0646 43.5379 48.0646H33.9319C32.7367 48.0646 32.1034 47.2418 32.0321 46.2387L31.3542 36.9728C31.3275 36.5812 31.6798 36.2557 32.0767 36.2557ZM36.2732 36.2557H41.1877C41.0896 35.2833 40.8175 34.421 40.4295 33.761C39.9836 32.9911 39.3771 32.5115 38.7349 32.5115C38.0882 32.5115 37.4862 32.9911 37.0313 33.7654C36.6433 34.421 36.3758 35.2877 36.2732 36.2557Z" fill="#EA501F"/>
<path d="M36.358 44.8707C36.2061 44.7633 36.167 44.5532 36.2712 44.3967C36.3754 44.2402 36.5793 44.1999 36.7312 44.3073C36.8267 44.3743 36.9265 44.4414 37.035 44.5085C37.7989 44.9869 38.5019 45.2239 39.0878 45.2239C39.6173 45.2239 40.047 45.0182 40.3204 44.6024C40.3378 44.5711 40.3551 44.5532 40.3595 44.5398C40.4376 44.4101 40.494 44.2715 40.5331 44.1373C40.6112 43.8601 40.5982 43.5739 40.4897 43.3146C40.3725 43.0418 40.1468 42.778 39.7953 42.5589C39.5609 42.4114 39.2701 42.2817 38.9186 42.1833C38.0245 41.924 37.3649 41.5573 37.009 41.0654C36.6184 40.5244 36.588 39.8716 37.0047 39.0801C37.2824 38.5569 37.8509 38.2305 38.5714 38.1724C39.192 38.1232 39.9385 38.2752 40.698 38.6732C40.8629 38.7582 40.928 38.9638 40.8412 39.1338C40.7544 39.3037 40.5591 39.3707 40.3942 39.2813C39.7475 38.9415 39.1312 38.8118 38.6191 38.8521C38.1287 38.8923 37.7555 39.089 37.5905 39.402C37.3128 39.9252 37.3171 40.3366 37.5428 40.6496C37.8032 41.0118 38.3457 41.2935 39.1009 41.5126C39.5088 41.6333 39.856 41.7853 40.1425 41.9642C40.6155 42.2593 40.9323 42.6305 41.1016 43.0329C41.2752 43.4487 41.2969 43.8869 41.1797 44.3162C41.1276 44.5085 41.0452 44.7007 40.9323 44.8885C40.9063 44.9288 40.8889 44.9601 40.8759 44.9825C40.4723 45.595 39.8517 45.8991 39.0965 45.9036C38.3891 45.9036 37.5645 45.6353 36.6965 45.0898C36.588 45.0272 36.4752 44.9556 36.358 44.8707Z" fill="white"/>
<path fill-rule="evenodd" clip-rule="evenodd" d="M59.5187 35.4698C60.2886 35.0849 61.2229 34.8752 62.078 34.8011L63.0382 34.7176C64.0908 34.6269 65.1439 34.6822 66.197 34.6822H66.775V35.2602C66.775 37.825 66.775 40.3909 66.775 42.9563V43.2511C66.775 45.8994 64.6096 48.0648 61.9602 48.0648H52.2557V34.6822H52.8332C53.888 34.6822 54.9372 34.613 55.9915 34.6949L56.9522 34.7674C57.8643 34.836 58.6995 35.0578 59.5187 35.4698V35.4698Z" fill="#4D4C4B"/>
<path fill-rule="evenodd" clip-rule="evenodd" d="M52.8326 35.2615V41.8541V42.9575V43.2524V47.4892H57.0684H57.7344H61.9596C64.2904 47.4892 66.1965 45.5821 66.1965 43.2524V42.9575C66.1965 40.4071 66.1965 37.9192 66.1965 35.2615C65.1843 35.2615 64.1146 35.2366 63.088 35.2947L62.1272 35.3776C61.1869 35.4916 60.2356 35.7112 59.5148 36.1271C58.7366 35.6774 57.8881 35.454 56.908 35.3445L55.9472 35.2714C54.8996 35.2228 53.8255 35.2615 52.8326 35.2615V35.2615Z" fill="#5FB74E"/>
<path fill-rule="evenodd" clip-rule="evenodd" d="M54.0314 47.4872H57.0691H57.735H61.9603C62.993 47.4872 63.9416 47.1127 64.6778 46.4938C63.8177 44.4943 61.8298 43.0949 59.515 43.0949C56.8335 43.0949 54.5906 44.9733 54.0314 47.4872V47.4872Z" fill="#89C45F"/>
<path fill-rule="evenodd" clip-rule="evenodd" d="M59.5151 47.4878L62.0097 47.4507C63.028 47.4507 63.9556 47.0912 64.6779 46.495C65.6077 45.7261 66.1968 44.5624 66.1968 43.2509V42.9561C66.1968 40.4057 66.1968 37.9178 66.1968 35.2601C65.1846 35.2601 64.1149 35.2352 63.0883 35.2932L62.1275 35.3762C61.1872 35.4902 60.2358 35.7097 59.5151 36.1257V47.4878V47.4878Z" fill="#4A9E4B"/>
<path fill-rule="evenodd" clip-rule="evenodd" d="M59.5151 47.4881H61.9754C63.0081 47.4881 63.9412 47.1137 64.6779 46.4953C63.8272 44.5179 61.7962 43.1273 59.5151 43.0969V47.4881Z" fill="#5FB74E"/>
<path fill-rule="evenodd" clip-rule="evenodd" d="M63.0882 34.893C62.9045 33.0898 61.3802 31.6843 59.53 31.6843C57.6804 31.6843 56.1571 33.0776 55.9474 34.8708L56.9082 34.9438C57.078 33.649 58.1815 32.6473 59.5261 32.6473C60.8702 32.6473 61.9836 33.6656 62.1274 34.9759L63.0882 34.893Z" fill="#4D4C4B"/>
<path fill-rule="evenodd" clip-rule="evenodd" d="M61.0776 43.659C60.6589 44.102 60.2408 44.5445 59.8226 44.9881L59.5145 45.3145L59.207 44.9881C58.7889 44.5456 58.3707 44.102 57.952 43.659L57.7357 43.4289L57.8939 43.1562C58.2297 42.5771 58.8574 42.2657 59.5145 42.2657C60.1727 42.2657 60.8 42.5771 61.1357 43.1562L61.2945 43.4289L61.0776 43.659Z" fill="#4D4C4B"/>
<path fill-rule="evenodd" clip-rule="evenodd" d="M60.7697 43.3683C60.3521 43.8113 59.9329 44.2538 59.5147 44.6974C59.0966 44.2538 58.6784 43.8113 58.2597 43.3683C58.5241 42.913 59.0202 42.6879 59.5147 42.6885C60.0098 42.6879 60.5054 42.913 60.7697 43.3683Z" fill="#FDF8B4"/>
<path fill-rule="evenodd" clip-rule="evenodd" d="M60.7697 43.3683C60.3521 43.8113 59.9329 44.2538 59.5147 44.6974V42.6885C60.0097 42.6879 60.5053 42.913 60.7697 43.3683Z" fill="#FCD066"/>
<path fill-rule="evenodd" clip-rule="evenodd" d="M56.3792 36.9275C58.2537 36.9275 59.7742 38.4486 59.7742 40.322C59.7742 42.1965 58.2537 43.717 56.3792 43.717C54.5047 43.717 52.9847 42.1965 52.9847 40.322C52.9847 38.4486 54.5047 36.9275 56.3792 36.9275Z" fill="#4D4C4B"/>
<path fill-rule="evenodd" clip-rule="evenodd" d="M56.3791 37.5051C57.935 37.5051 59.1967 38.7668 59.1967 40.3221C59.1967 41.8781 57.935 43.1397 56.3791 43.1397C54.8226 43.1397 53.5621 41.8781 53.5621 40.3221C53.5621 38.7668 54.8226 37.5051 56.3791 37.5051Z" fill="#EEEFEE"/>
<path fill-rule="evenodd" clip-rule="evenodd" d="M56.3789 37.5051C57.6627 37.5051 58.7468 38.3647 59.0858 39.5395C58.7468 40.7138 57.6627 41.5733 56.3789 41.5733C55.0945 41.5733 54.0121 40.7138 53.6725 39.5395C54.0121 38.3647 55.0945 37.5051 56.3789 37.5051Z" fill="#FEFEFE"/>
<path fill-rule="evenodd" clip-rule="evenodd" d="M62.6511 36.9275C64.5256 36.9275 66.0455 38.4486 66.0455 40.322C66.0455 42.1965 64.5256 43.717 62.6511 43.717C60.7766 43.717 59.256 42.1976 59.256 40.322C59.256 38.4486 60.7766 36.9275 62.6511 36.9275Z" fill="#4D4C4B"/>
<path fill-rule="evenodd" clip-rule="evenodd" d="M62.6511 37.5051C64.2064 37.5051 65.4681 38.7668 65.4681 40.3221C65.4681 41.8781 64.2064 43.1397 62.6511 43.1397C61.0952 43.1397 59.834 41.8781 59.834 40.3221C59.834 38.7668 61.0952 37.5051 62.6511 37.5051Z" fill="#EEEFEE"/>
<path fill-rule="evenodd" clip-rule="evenodd" d="M62.6509 37.5051C63.9347 37.5051 65.0183 38.3647 65.3573 39.5395C65.0183 40.7138 63.9347 41.5733 62.6509 41.5733C61.3666 41.5733 60.283 40.7138 59.9434 39.5395C60.283 38.3647 61.3666 37.5051 62.6509 37.5051Z" fill="#FEFEFE"/>
<path fill-rule="evenodd" clip-rule="evenodd" d="M56.733 38.5695C57.738 38.5695 58.5527 39.3843 58.5527 40.3876C58.5527 41.3932 57.738 42.2079 56.733 42.2079C55.7279 42.2079 54.9132 41.3932 54.9132 40.3876C54.9132 40.053 55.0045 39.7394 55.1627 39.4694C55.2926 39.7908 55.6068 40.0165 55.9752 40.0165C56.4592 40.0165 56.8519 39.6249 56.8519 39.1409C56.8519 38.923 56.7722 38.7238 56.6411 38.5712C56.6716 38.5695 56.7025 38.5695 56.733 38.5695V38.5695Z" fill="#4D4C4B"/>
<path fill-rule="evenodd" clip-rule="evenodd" d="M62.2961 38.5695C63.3017 38.5695 64.1159 39.3843 64.1159 40.3876C64.1159 41.3932 63.3017 42.2079 62.2956 42.2079C61.2917 42.2079 60.4769 41.3932 60.4769 40.3876C60.4769 40.053 60.5676 39.7394 60.7253 39.4694C60.8558 39.7908 61.1705 40.0165 61.5389 40.0165C62.0223 40.0165 62.4145 39.6249 62.4145 39.1409C62.4145 38.923 62.336 38.7238 62.2049 38.5712C62.2353 38.5695 62.2652 38.5695 62.2961 38.5695V38.5695Z" fill="#4D4C4B"/>
<path d="M80.8861 45.876C80.7812 45.8767 80.6778 45.8498 80.5865 45.7981C79.8046 45.3457 74.0136 41.7147 73.7949 41.6039C73.6285 41.5262 73.5148 41.3671 73.4953 41.1845V36.0915C73.491 35.9014 73.585 35.7225 73.744 35.6182L73.7859 35.5942C74.3461 35.2467 76.2215 34.1023 76.5181 33.9375C76.5862 33.8971 76.6637 33.8754 76.7428 33.8746C76.817 33.8754 76.8899 33.8939 76.9555 33.9285C76.9555 33.9285 79.5799 35.6391 79.9814 35.7919C80.263 35.9213 80.5702 35.9858 80.8801 35.9807C81.2313 35.988 81.5784 35.9033 81.8867 35.735C82.2792 35.5283 84.7867 33.9375 84.8137 33.9375C84.8769 33.8993 84.9495 33.8796 85.0234 33.8806C85.1026 33.881 85.1802 33.9027 85.2481 33.9435C85.5896 34.1322 87.9144 35.5552 88.0132 35.6182C88.1768 35.7168 88.2759 35.8946 88.2739 36.0855V41.1785C88.2556 41.3616 88.1415 41.5212 87.9743 41.5979C87.7556 41.7177 81.9826 45.3487 81.1857 45.7921C81.095 45.846 80.9916 45.8749 80.8861 45.876Z" fill="url(#paint0_linear_32_13)"/>
<path d="M80.8564 45.8753L80.8864 45.8753C80.9914 45.876 81.0947 45.8492 81.186 45.7974C81.9679 45.345 87.7559 41.7141 87.9746 41.6032C88.1418 41.5265 88.2558 41.3669 88.2742 41.1838V36.0908C88.2752 36.0046 88.2557 35.9194 88.2173 35.8422L80.8564 39.8836V45.8753Z" fill="url(#paint1_linear_32_13)"/>
<path d="M80.8306 45.8038L80.8009 45.8038C80.6971 45.8045 80.5949 45.7779 80.5045 45.7267C79.7309 45.2792 74.0046 41.6869 73.7882 41.5772C73.6228 41.5013 73.51 41.3434 73.4919 41.1623V36.1236C73.4909 36.0383 73.5102 35.954 73.5482 35.8776L80.8306 39.8759V45.8038Z" fill="url(#paint2_linear_32_13)"/>
</g>
<defs>
<filter id="filter0_d_32_13" x="0.924703" y="0.18512" width="103.68" height="70.408" filterUnits="userSpaceOnUse" color-interpolation-filters="sRGB">
<feFlood flood-opacity="0" result="BackgroundImageFix"/>
<feColorMatrix in="SourceAlpha" type="matrix" values="0 0 0 0 0 0 0 0 0 0 0 0 0 0 0 0 0 0 127 0" result="hardAlpha"/>
<feOffset dx="-7.56051" dy="7.56215"/>
<feGaussianBlur stdDeviation="3.78107"/>
<feComposite in2="hardAlpha" operator="out"/>
<feColorMatrix type="matrix" values="0 0 0 0 0 0 0 0 0 0 0 0 0 0 0 0 0 0 0.1 0"/>
<feBlend mode="normal" in2="BackgroundImageFix" result="effect1_dropShadow_32_13"/>
<feBlend mode="normal" in="SourceGraphic" in2="effect1_dropShadow_32_13" result="shape"/>
</filter>
<linearGradient id="paint0_linear_32_13" x1="73.4862" y1="33.9842" x2="88.1291" y2="33.8708" gradientUnits="userSpaceOnUse">
<stop offset="1e-07" stop-color="#FF9200"/>
<stop offset="0.337553" stop-color="#F36D00"/>
<stop offset="0.56729" stop-color="#F83C72"/>
<stop offset="0.78" stop-color="#FC1CBE"/>
<stop offset="0.93" stop-color="#FE08ED"/>
<stop offset="1" stop-color="#FF00FF"/>
</linearGradient>
<linearGradient id="paint1_linear_32_13" x1="77.6001" y1="44.6229" x2="92.5292" y2="36.3568" gradientUnits="userSpaceOnUse">
<stop stop-color="#EE0A3F"/>
<stop offset="1" stop-color="#EE0A3F" stop-opacity="0"/>
</linearGradient>
<linearGradient id="paint2_linear_32_13" x1="79.0527" y1="42.469" x2="71.8386" y2="36.6577" gradientUnits="userSpaceOnUse">
<stop stop-color="#ED6600"/>
<stop offset="1" stop-color="#F98200"/>
</linearGradient>
</defs>
</svg>
