<svg width="88" height="73" viewBox="0 0 88 73" fill="none" xmlns="http://www.w3.org/2000/svg">
<g filter="url(#filter0_d_32_47)">
<path d="M15.3018 6.62893C15.3018 2.96787 18.2696 0 21.9307 0H81.0056C84.6666 0 87.6345 2.96787 87.6345 6.62893V50.7038C87.6345 54.3649 84.6666 57.3327 81.0055 57.3327H15.3018V6.62893Z" fill="white" shape-rendering="crispEdges"/>
<path d="M26.2383 15.1664H24.4799V9.97754H26.2737C26.7889 9.97754 27.2314 10.0814 27.6013 10.2892C27.9729 10.4952 28.2584 10.7917 28.4577 11.1785C28.657 11.5653 28.7567 12.0281 28.7567 12.5669C28.7567 13.1074 28.6562 13.5719 28.4552 13.9604C28.2559 14.3489 27.9679 14.647 27.5912 14.8547C27.2162 15.0625 26.7652 15.1664 26.2383 15.1664ZM25.4199 14.3531H26.1927C26.5541 14.3531 26.8556 14.2872 27.0972 14.1555C27.3387 14.022 27.5203 13.8236 27.6419 13.5601C27.7635 13.2949 27.8243 12.9638 27.8243 12.5669C27.8243 12.17 27.7635 11.8406 27.6419 11.5788C27.5203 11.3153 27.3404 11.1185 27.1022 10.9885C26.8657 10.8567 26.5718 10.7908 26.2205 10.7908H25.4199V14.3531ZM29.6092 15.1664V11.2748H30.5264V15.1664H29.6092ZM30.0703 10.7224C29.9251 10.7224 29.8001 10.6743 29.6954 10.578C29.5906 10.48 29.5383 10.3627 29.5383 10.2258C29.5383 10.0873 29.5906 9.96994 29.6954 9.87367C29.8001 9.7757 29.9251 9.72672 30.0703 9.72672C30.2173 9.72672 30.3423 9.7757 30.4453 9.87367C30.55 9.96994 30.6024 10.0873 30.6024 10.2258C30.6024 10.3627 30.55 10.48 30.4453 10.578C30.3423 10.6743 30.2173 10.7224 30.0703 10.7224ZM34.5453 12.3034L33.7092 12.3946C33.6856 12.3102 33.6442 12.2308 33.5851 12.1565C33.5277 12.0821 33.45 12.0222 33.352 11.9766C33.254 11.931 33.1341 11.9082 32.9922 11.9082C32.8014 11.9082 32.6409 11.9495 32.5108 12.0323C32.3825 12.1151 32.3191 12.2223 32.3208 12.3541C32.3191 12.4672 32.3605 12.5593 32.445 12.6302C32.5311 12.7012 32.673 12.7594 32.8706 12.8051L33.5344 12.9469C33.9026 13.0263 34.1763 13.1522 34.3553 13.3244C34.536 13.4967 34.6273 13.7222 34.6289 14.0009C34.6273 14.2458 34.5555 14.462 34.4136 14.6495C34.2734 14.8353 34.0783 14.9806 33.8283 15.0853C33.5783 15.19 33.2912 15.2424 32.9669 15.2424C32.4906 15.2424 32.1072 15.1427 31.8166 14.9434C31.5261 14.7424 31.353 14.4629 31.2972 14.1048L32.1916 14.0187C32.2321 14.1943 32.3183 14.3269 32.45 14.4164C32.5818 14.506 32.7532 14.5507 32.9644 14.5507C33.1823 14.5507 33.3571 14.506 33.4888 14.4164C33.6223 14.3269 33.689 14.2163 33.689 14.0845C33.689 13.9731 33.6459 13.881 33.5598 13.8084C33.4753 13.7357 33.3436 13.68 33.1645 13.6411L32.5007 13.5018C32.1274 13.4241 31.8513 13.2932 31.6722 13.1091C31.4932 12.9233 31.4045 12.6885 31.4062 12.4047C31.4045 12.1649 31.4695 11.9571 31.6013 11.7815C31.7347 11.6041 31.9197 11.4673 32.1561 11.371C32.3943 11.2731 32.6688 11.2241 32.9796 11.2241C33.4356 11.2241 33.7945 11.3212 34.0564 11.5154C34.3198 11.7097 34.4828 11.9723 34.5453 12.3034ZM36.2213 13.9452L36.2188 12.838H36.3657L37.7643 11.2748H38.836L37.1157 13.1902H36.9257L36.2213 13.9452ZM35.3852 15.1664V9.97754H36.3024V15.1664H35.3852ZM37.8276 15.1664L36.5608 13.3954L37.179 12.7493L38.9247 15.1664H37.8276ZM40.9845 15.2424C40.6045 15.2424 40.2751 15.1588 39.9964 14.9916C39.7177 14.8243 39.5015 14.5904 39.3478 14.2898C39.1958 13.9891 39.1198 13.6378 39.1198 13.2358C39.1198 12.8338 39.1958 12.4816 39.3478 12.1793C39.5015 11.8769 39.7177 11.6421 39.9964 11.4749C40.2751 11.3077 40.6045 11.2241 40.9845 11.2241C41.3646 11.2241 41.6939 11.3077 41.9726 11.4749C42.2513 11.6421 42.4667 11.8769 42.6187 12.1793C42.7724 12.4816 42.8493 12.8338 42.8493 13.2358C42.8493 13.6378 42.7724 13.9891 42.6187 14.2898C42.4667 14.5904 42.2513 14.8243 41.9726 14.9916C41.6939 15.1588 41.3646 15.2424 40.9845 15.2424ZM40.9896 14.5076C41.1956 14.5076 41.3679 14.4511 41.5064 14.3379C41.6449 14.223 41.748 14.0693 41.8155 13.8768C41.8848 13.6842 41.9194 13.4697 41.9194 13.2332C41.9194 12.9951 41.8848 12.7797 41.8155 12.5872C41.748 12.3929 41.6449 12.2384 41.5064 12.1235C41.3679 12.0087 41.1956 11.9512 40.9896 11.9512C40.7784 11.9512 40.6028 12.0087 40.4626 12.1235C40.3241 12.2384 40.2202 12.3929 40.151 12.5872C40.0834 12.7797 40.0496 12.9951 40.0496 13.2332C40.0496 13.4697 40.0834 13.6842 40.151 13.8768C40.2202 14.0693 40.3241 14.223 40.4626 14.3379C40.6028 14.4511 40.7784 14.5076 40.9896 14.5076ZM44.5449 12.8861V15.1664H43.6277V11.2748H44.5043V11.936H44.5499C44.6395 11.7181 44.7822 11.545 44.9781 11.4166C45.1757 11.2883 45.4198 11.2241 45.7103 11.2241C45.9789 11.2241 46.2128 11.2815 46.4121 11.3964C46.6131 11.5112 46.7685 11.6776 46.8783 11.8955C46.9898 12.1134 47.0447 12.3777 47.043 12.6885V15.1664H46.1258V12.8304C46.1258 12.5703 46.0583 12.3667 45.9232 12.2198C45.7897 12.0728 45.6048 11.9994 45.3683 11.9994C45.2078 11.9994 45.0651 12.0348 44.9401 12.1058C44.8168 12.175 44.7197 12.2755 44.6488 12.4073C44.5795 12.539 44.5449 12.6986 44.5449 12.8861ZM49.7857 15.1664V9.97754H51.7315C52.1301 9.97754 52.4645 10.0468 52.7348 10.1853C53.0067 10.3238 53.2119 10.518 53.3504 10.768C53.4906 11.0163 53.5607 11.306 53.5607 11.6371C53.5607 11.9698 53.4898 12.2586 53.3479 12.5036C53.2077 12.7468 53.0008 12.9351 52.7272 13.0686C52.4535 13.2003 52.1174 13.2662 51.7188 13.2662H50.3329V12.4858H51.5921C51.8252 12.4858 52.0161 12.4537 52.1647 12.3895C52.3134 12.3237 52.4231 12.2282 52.4941 12.1032C52.5667 11.9766 52.603 11.8212 52.603 11.6371C52.603 11.453 52.5667 11.2959 52.4941 11.1658C52.4215 11.0341 52.3108 10.9344 52.1622 10.8668C52.0135 10.7976 51.8218 10.763 51.587 10.763H50.7256V15.1664H49.7857ZM52.4662 12.8152L53.7508 15.1664H52.7018L51.4401 12.8152H52.4662ZM56.0525 15.2424C55.6624 15.2424 55.3254 15.1613 55.0416 14.9992C54.7596 14.8353 54.5425 14.6039 54.3905 14.305C54.2385 14.0043 54.1625 13.6504 54.1625 13.2434C54.1625 12.8431 54.2385 12.4917 54.3905 12.1894C54.5442 11.8854 54.7587 11.6489 55.034 11.48C55.3093 11.3094 55.6328 11.2241 56.0044 11.2241C56.2443 11.2241 56.4706 11.2629 56.6834 11.3406C56.8979 11.4166 57.0871 11.5349 57.2509 11.6953C57.4165 11.8558 57.5465 12.0602 57.6411 12.3085C57.7357 12.5551 57.783 12.849 57.783 13.1902V13.4714H54.5932V12.8532H56.9038C56.9021 12.6775 56.8641 12.5213 56.7898 12.3845C56.7155 12.246 56.6116 12.137 56.4782 12.0576C56.3464 11.9783 56.1927 11.9386 56.0171 11.9386C55.8296 11.9386 55.6649 11.9842 55.523 12.0754C55.3811 12.1649 55.2705 12.2831 55.1911 12.4301C55.1134 12.5753 55.0737 12.735 55.072 12.9089V13.4486C55.072 13.6749 55.1134 13.8692 55.1962 14.0313C55.2789 14.1918 55.3946 14.3151 55.5433 14.4012C55.6919 14.4857 55.8659 14.5279 56.0652 14.5279C56.1986 14.5279 56.3194 14.5093 56.4275 14.4722C56.5356 14.4333 56.6294 14.3767 56.7087 14.3024C56.7881 14.2281 56.8481 14.136 56.8886 14.0263L57.745 14.1225C57.6909 14.3489 57.5879 14.5465 57.4359 14.7154C57.2856 14.8826 57.093 15.0127 56.8582 15.1056C56.6234 15.1968 56.3549 15.2424 56.0525 15.2424ZM61.6347 12.3034L60.7986 12.3946C60.775 12.3102 60.7336 12.2308 60.6745 12.1565C60.6171 12.0821 60.5394 12.0222 60.4414 11.9766C60.3434 11.931 60.2235 11.9082 60.0816 11.9082C59.8908 11.9082 59.7303 11.9495 59.6002 12.0323C59.4719 12.1151 59.4085 12.2223 59.4102 12.3541C59.4085 12.4672 59.4499 12.5593 59.5344 12.6302C59.6205 12.7012 59.7624 12.7594 59.96 12.8051L60.6238 12.9469C60.992 13.0263 61.2657 13.1522 61.4447 13.3244C61.6254 13.4967 61.7166 13.7222 61.7183 14.0009C61.7166 14.2458 61.6449 14.462 61.503 14.6495C61.3628 14.8353 61.1677 14.9806 60.9177 15.0853C60.6677 15.19 60.3806 15.2424 60.0563 15.2424C59.58 15.2424 59.1965 15.1427 58.906 14.9434C58.6155 14.7424 58.4424 14.4629 58.3866 14.1048L59.281 14.0187C59.3215 14.1943 59.4077 14.3269 59.5394 14.4164C59.6712 14.506 59.8426 14.5507 60.0537 14.5507C60.2716 14.5507 60.4465 14.506 60.5782 14.4164C60.7116 14.3269 60.7784 14.2163 60.7784 14.0845C60.7784 13.9731 60.7353 13.881 60.6491 13.8084C60.5647 13.7357 60.4329 13.68 60.2539 13.6411L59.5901 13.5018C59.2168 13.4241 58.9406 13.2932 58.7616 13.1091C58.5826 12.9233 58.4939 12.6885 58.4956 12.4047C58.4939 12.1649 58.5589 11.9571 58.6907 11.7815C58.8241 11.6041 59.0091 11.4673 59.2455 11.371C59.4837 11.2731 59.7582 11.2241 60.069 11.2241C60.525 11.2241 60.8839 11.3212 61.1457 11.5154C61.4092 11.7097 61.5722 11.9723 61.6347 12.3034ZM64.1975 15.2424C63.8073 15.2424 63.4703 15.1613 63.1866 14.9992C62.9045 14.8353 62.6874 14.6039 62.5354 14.305C62.3834 14.0043 62.3074 13.6504 62.3074 13.2434C62.3074 12.8431 62.3834 12.4917 62.5354 12.1894C62.6891 11.8854 62.9036 11.6489 63.179 11.48C63.4543 11.3094 63.7777 11.2241 64.1493 11.2241C64.3892 11.2241 64.6155 11.2629 64.8283 11.3406C65.0429 11.4166 65.232 11.5349 65.3959 11.6953C65.5614 11.8558 65.6915 12.0602 65.786 12.3085C65.8806 12.5551 65.9279 12.849 65.9279 13.1902V13.4714H62.7381V12.8532H65.0488C65.0471 12.6775 65.0091 12.5213 64.9348 12.3845C64.8604 12.246 64.7566 12.137 64.6231 12.0576C64.4914 11.9783 64.3377 11.9386 64.162 11.9386C63.9745 11.9386 63.8098 11.9842 63.6679 12.0754C63.5261 12.1649 63.4154 12.2831 63.336 12.4301C63.2583 12.5753 63.2187 12.735 63.217 12.9089V13.4486C63.217 13.6749 63.2583 13.8692 63.3411 14.0313C63.4239 14.1918 63.5396 14.3151 63.6882 14.4012C63.8369 14.4857 64.0108 14.5279 64.2101 14.5279C64.3436 14.5279 64.4643 14.5093 64.5724 14.4722C64.6805 14.4333 64.7743 14.3767 64.8537 14.3024C64.9331 14.2281 64.993 14.136 65.0336 14.0263L65.8899 14.1225C65.8359 14.3489 65.7328 14.5465 65.5808 14.7154C65.4305 14.8826 65.2379 15.0127 65.0032 15.1056C64.7684 15.1968 64.4998 15.2424 64.1975 15.2424ZM67.621 9.97754V15.1664H66.7038V9.97754H67.621ZM69.4813 9.97754V15.1664H68.5642V9.97754H69.4813ZM72.1473 15.2424C71.7571 15.2424 71.4202 15.1613 71.1364 14.9992C70.8543 14.8353 70.6373 14.6039 70.4853 14.305C70.3332 14.0043 70.2572 13.6504 70.2572 13.2434C70.2572 12.8431 70.3332 12.4917 70.4853 12.1894C70.639 11.8854 70.8535 11.6489 71.1288 11.48C71.4041 11.3094 71.7276 11.2241 72.0992 11.2241C72.339 11.2241 72.5654 11.2629 72.7782 11.3406C72.9927 11.4166 73.1819 11.5349 73.3457 11.6953C73.5112 11.8558 73.6413 12.0602 73.7359 12.3085C73.8305 12.5551 73.8778 12.849 73.8778 13.1902V13.4714H70.688V12.8532H72.9986C72.9969 12.6775 72.9589 12.5213 72.8846 12.3845C72.8103 12.246 72.7064 12.137 72.573 12.0576C72.4412 11.9783 72.2875 11.9386 72.1118 11.9386C71.9244 11.9386 71.7597 11.9842 71.6178 12.0754C71.4759 12.1649 71.3653 12.2831 71.2859 12.4301C71.2082 12.5753 71.1685 12.735 71.1668 12.9089V13.4486C71.1668 13.6749 71.2082 13.8692 71.291 14.0313C71.3737 14.1918 71.4894 14.3151 71.6381 14.4012C71.7867 14.4857 71.9607 14.5279 72.16 14.5279C72.2934 14.5279 72.4142 14.5093 72.5223 14.4722C72.6304 14.4333 72.7241 14.3767 72.8035 14.3024C72.8829 14.2281 72.9429 14.136 72.9834 14.0263L73.8398 14.1225C73.7857 14.3489 73.6827 14.5465 73.5307 14.7154C73.3803 14.8826 73.1878 15.0127 72.953 15.1056C72.7182 15.1968 72.4497 15.2424 72.1473 15.2424ZM74.6537 15.1664V11.2748H75.543V11.9234H75.5835C75.6545 11.6987 75.7761 11.5256 75.9484 11.404C76.1223 11.2807 76.3208 11.219 76.5438 11.219C76.5944 11.219 76.651 11.2215 76.7135 11.2266C76.7777 11.23 76.8309 11.2359 76.8731 11.2443V12.088C76.8343 12.0745 76.7726 12.0627 76.6882 12.0526C76.6054 12.0407 76.5252 12.0348 76.4475 12.0348C76.2803 12.0348 76.1299 12.0712 75.9965 12.1438C75.8648 12.2147 75.7609 12.3135 75.6849 12.4402C75.6089 12.5669 75.5709 12.713 75.5709 12.8785V15.1664H74.6537ZM24.4556 25.1664V20.2246H26.3087C26.6884 20.2246 27.0069 20.2954 27.2642 20.437C27.5232 20.5785 27.7187 20.7732 27.8506 21.0209C27.9841 21.267 28.0509 21.5469 28.0509 21.8606C28.0509 22.1775 27.9841 22.459 27.8506 22.7052C27.7171 22.9513 27.52 23.1451 27.2594 23.2867C26.9988 23.4266 26.6779 23.4966 26.2967 23.4966H25.0685V22.7607H26.176C26.398 22.7607 26.5798 22.722 26.7213 22.6448C26.8629 22.5676 26.9675 22.4614 27.035 22.3263C27.1042 22.1912 27.1388 22.036 27.1388 21.8606C27.1388 21.6853 27.1042 21.5308 27.035 21.3973C26.9675 21.2638 26.8621 21.1601 26.7189 21.0861C26.5774 21.0105 26.3948 20.9727 26.1712 20.9727H25.3508V25.1664H24.4556ZM28.7898 25.1664V21.4601H29.6368V22.0778H29.6754C29.743 21.8638 29.8588 21.699 30.0229 21.5831C30.1886 21.4657 30.3776 21.407 30.5899 21.407C30.6382 21.407 30.6921 21.4094 30.7516 21.4142C30.8127 21.4174 30.8634 21.4231 30.9036 21.4311V22.2346C30.8666 22.2218 30.8079 22.2105 30.7275 22.2008C30.6486 22.1896 30.5722 22.184 30.4982 22.184C30.339 22.184 30.1958 22.2185 30.0687 22.2877C29.9432 22.3553 29.8443 22.4494 29.7719 22.57C29.6995 22.6907 29.6633 22.8298 29.6633 22.9875V25.1664H28.7898ZM32.9721 25.2388C32.6005 25.2388 32.2796 25.1616 32.0093 25.0071C31.7407 24.8511 31.534 24.6307 31.3892 24.346C31.2444 24.0596 31.172 23.7226 31.172 23.3349C31.172 22.9537 31.2444 22.6191 31.3892 22.3311C31.5356 22.0416 31.7399 21.8164 32.0021 21.6555C32.2643 21.493 32.5724 21.4118 32.9263 21.4118C33.1547 21.4118 33.3703 21.4488 33.5729 21.5228C33.7772 21.5952 33.9574 21.7078 34.1134 21.8606C34.2711 22.0134 34.395 22.2081 34.485 22.4446C34.5751 22.6794 34.6202 22.9593 34.6202 23.2843V23.5521H31.5822V22.9633H33.7829C33.7813 22.796 33.7451 22.6472 33.6743 22.5169C33.6035 22.385 33.5046 22.2813 33.3775 22.2057C33.252 22.1301 33.1056 22.0923 32.9383 22.0923C32.7598 22.0923 32.6029 22.1357 32.4678 22.2226C32.3327 22.3078 32.2273 22.4204 32.1517 22.5604C32.0777 22.6987 32.0399 22.8507 32.0383 23.0164V23.5304C32.0383 23.746 32.0777 23.9309 32.1565 24.0854C32.2354 24.2382 32.3455 24.3556 32.4871 24.4377C32.6287 24.5181 32.7944 24.5583 32.9842 24.5583C33.1113 24.5583 33.2263 24.5406 33.3292 24.5052C33.4322 24.4682 33.5215 24.4143 33.5971 24.3436C33.6727 24.2728 33.7298 24.1851 33.7684 24.0805L34.584 24.1722C34.5325 24.3878 34.4344 24.576 34.2896 24.7369C34.1464 24.8961 33.963 25.02 33.7394 25.1085C33.5158 25.1953 33.2601 25.2388 32.9721 25.2388ZM35.3591 25.1664V21.4601H36.194V22.0899H36.2375C36.3147 21.8775 36.4426 21.7118 36.6211 21.5928C36.7997 21.4721 37.0128 21.4118 37.2606 21.4118C37.5115 21.4118 37.723 21.4729 37.8952 21.5952C38.0689 21.7158 38.1912 21.8807 38.2619 22.0899H38.3005C38.3826 21.8839 38.5209 21.7199 38.7156 21.5976C38.9118 21.4737 39.1443 21.4118 39.4129 21.4118C39.754 21.4118 40.0322 21.5196 40.2478 21.7351C40.4634 21.9507 40.5711 22.2652 40.5711 22.6786V25.1664H39.6952V22.8137C39.6952 22.5837 39.6341 22.4156 39.5119 22.3094C39.3896 22.2017 39.24 22.1478 39.063 22.1478C38.8523 22.1478 38.6874 22.2137 38.5684 22.3456C38.451 22.4759 38.3922 22.6456 38.3922 22.8548V25.1664H37.5356V22.7775C37.5356 22.5861 37.4777 22.4333 37.3619 22.3191C37.2477 22.2049 37.0981 22.1478 36.9131 22.1478C36.7876 22.1478 36.6734 22.1799 36.5704 22.2443C36.4675 22.307 36.3855 22.3963 36.3243 22.5121C36.2632 22.6263 36.2326 22.7599 36.2326 22.9127V25.1664H35.3591ZM41.4573 25.1664V21.4601H42.3308V25.1664H41.4573ZM41.8965 20.934C41.7581 20.934 41.6391 20.8882 41.5393 20.7965C41.4396 20.7032 41.3897 20.5914 41.3897 20.4611C41.3897 20.3292 41.4396 20.2174 41.5393 20.1257C41.6391 20.0324 41.7581 19.9857 41.8965 19.9857C42.0364 19.9857 42.1555 20.0324 42.2536 20.1257C42.3533 20.2174 42.4032 20.3292 42.4032 20.4611C42.4032 20.5914 42.3533 20.7032 42.2536 20.7965C42.1555 20.8882 42.0364 20.934 41.8965 20.934ZM45.5913 23.6076V21.4601H46.4648V25.1664H45.6179V24.5076H45.5793C45.4956 24.7152 45.3581 24.8849 45.1666 25.0168C44.9768 25.1487 44.7428 25.2146 44.4645 25.2146C44.2216 25.2146 44.0068 25.1608 43.8202 25.053C43.6352 24.9436 43.4904 24.7851 43.3859 24.5776C43.2813 24.3685 43.229 24.1159 43.229 23.8199V21.4601H44.1025V23.6848C44.1025 23.9197 44.1669 24.1063 44.2956 24.2446C44.4242 24.383 44.5932 24.4521 44.8023 24.4521C44.931 24.4521 45.0556 24.4208 45.1763 24.358C45.2969 24.2953 45.3959 24.202 45.4731 24.0781C45.5519 23.9527 45.5913 23.7958 45.5913 23.6076ZM47.363 25.1664V21.4601H48.1979V22.0899H48.2414C48.3186 21.8775 48.4465 21.7118 48.625 21.5928C48.8036 21.4721 49.0167 21.4118 49.2644 21.4118C49.5154 21.4118 49.7269 21.4729 49.8991 21.5952C50.0728 21.7158 50.195 21.8807 50.2658 22.0899H50.3044C50.3865 21.8839 50.5248 21.7199 50.7195 21.5976C50.9157 21.4737 51.1482 21.4118 51.4168 21.4118C51.7578 21.4118 52.0361 21.5196 52.2517 21.7351C52.4673 21.9507 52.575 22.2652 52.575 22.6786V25.1664H51.6991V22.8137C51.6991 22.5837 51.638 22.4156 51.5157 22.3094C51.3935 22.2017 51.2439 22.1478 51.0669 22.1478C50.8562 22.1478 50.6913 22.2137 50.5723 22.3456C50.4548 22.4759 50.3961 22.6456 50.3961 22.8548V25.1664H49.5395V22.7775C49.5395 22.5861 49.4816 22.4333 49.3658 22.3191C49.2516 22.2049 49.102 22.1478 48.917 22.1478C48.7915 22.1478 48.6773 22.1799 48.5743 22.2443C48.4714 22.307 48.3893 22.3963 48.3282 22.5121C48.2671 22.6263 48.2365 22.7599 48.2365 22.9127V25.1664H47.363ZM55.1853 25.1664V20.2246H56.0805V22.3167H58.3704V20.2246H59.268V25.1664H58.3704V23.0671H56.0805V25.1664H55.1853ZM60.203 25.1664V21.4601H61.0765V25.1664H60.203ZM60.6422 20.934C60.5038 20.934 60.3848 20.8882 60.2851 20.7965C60.1853 20.7032 60.1355 20.5914 60.1355 20.4611C60.1355 20.3292 60.1853 20.2174 60.2851 20.1257C60.3848 20.0324 60.5038 19.9857 60.6422 19.9857C60.7821 19.9857 60.9012 20.0324 60.9993 20.1257C61.099 20.2174 61.1489 20.3292 61.1489 20.4611C61.1489 20.5914 61.099 20.7032 60.9993 20.7965C60.9012 20.8882 60.7821 20.934 60.6422 20.934ZM62.8482 22.9947V25.1664H61.9747V21.4601H62.8096V22.0899H62.8531C62.9383 21.8823 63.0742 21.7175 63.2608 21.5952C63.4491 21.4729 63.6815 21.4118 63.9582 21.4118C64.214 21.4118 64.4368 21.4665 64.6266 21.5759C64.818 21.6853 64.966 21.8437 65.0706 22.0512C65.1767 22.2588 65.229 22.5105 65.2274 22.8065V25.1664H64.3539V22.9416C64.3539 22.6939 64.2896 22.5001 64.1609 22.3601C64.0338 22.2202 63.8577 22.1502 63.6324 22.1502C63.4796 22.1502 63.3437 22.184 63.2247 22.2515C63.1072 22.3175 63.0147 22.4132 62.9472 22.5387C62.8812 22.6641 62.8482 22.8162 62.8482 22.9947ZM67.7272 26.6335C67.4136 26.6335 67.1441 26.5908 66.9189 26.5056C66.6937 26.4219 66.5127 26.3093 66.376 26.1678C66.2392 26.0262 66.1443 25.8694 66.0913 25.6972L66.8779 25.5066C66.9133 25.579 66.9647 25.6506 67.0323 25.7214C67.0999 25.7938 67.1908 25.8533 67.305 25.8999C67.4208 25.9482 67.5664 25.9723 67.7417 25.9723C67.9895 25.9723 68.1946 25.912 68.357 25.7913C68.5195 25.6723 68.6007 25.476 68.6007 25.2026V24.5004H68.5573C68.5123 24.5905 68.4463 24.683 68.3594 24.7779C68.2742 24.8728 68.1608 24.9524 68.0192 25.0168C67.8793 25.0811 67.7031 25.1133 67.4908 25.1133C67.206 25.1133 66.9479 25.0465 66.7162 24.913C66.4862 24.7779 66.3028 24.5768 66.1661 24.3098C66.0309 24.0411 65.9634 23.7049 65.9634 23.3012C65.9634 22.8942 66.0309 22.5507 66.1661 22.2708C66.3028 21.9893 66.487 21.7762 66.7186 21.6314C66.9503 21.485 67.2085 21.4118 67.4932 21.4118C67.7104 21.4118 67.8889 21.4488 68.0289 21.5228C68.1704 21.5952 68.283 21.6829 68.3667 21.7858C68.4503 21.8872 68.5139 21.9829 68.5573 22.073H68.6056V21.4601H69.467V25.2267C69.467 25.5436 69.3914 25.8058 69.2402 26.0133C69.089 26.2208 68.8822 26.3761 68.62 26.479C68.3578 26.582 68.0602 26.6335 67.7272 26.6335ZM67.7345 24.428C67.9195 24.428 68.0771 24.383 68.2074 24.2929C68.3377 24.2028 68.4367 24.0733 68.5042 23.9044C68.5718 23.7355 68.6056 23.5328 68.6056 23.2963C68.6056 23.0631 68.5718 22.8588 68.5042 22.6834C68.4383 22.5081 68.3401 22.3722 68.2098 22.2757C68.0811 22.1775 67.9227 22.1285 67.7345 22.1285C67.5398 22.1285 67.3774 22.1791 67.2471 22.2805C67.1168 22.3818 67.0186 22.521 66.9527 22.6979C66.8867 22.8733 66.8538 23.0727 66.8538 23.2963C66.8538 23.5232 66.8867 23.7218 66.9527 23.8923C67.0202 24.0612 67.1192 24.1932 67.2495 24.2881C67.3814 24.3814 67.5431 24.428 67.7345 24.428ZM71.9741 26.6335C71.6604 26.6335 71.3909 26.5908 71.1657 26.5056C70.9405 26.4219 70.7595 26.3093 70.6228 26.1678C70.4861 26.0262 70.3912 25.8694 70.3381 25.6972L71.1247 25.5066C71.1601 25.579 71.2116 25.6506 71.2791 25.7214C71.3467 25.7938 71.4376 25.8533 71.5518 25.8999C71.6676 25.9482 71.8132 25.9723 71.9885 25.9723C72.2363 25.9723 72.4414 25.912 72.6038 25.7913C72.7663 25.6723 72.8476 25.476 72.8476 25.2026V24.5004H72.8041C72.7591 24.5905 72.6931 24.683 72.6063 24.7779C72.521 24.8728 72.4076 24.9524 72.266 25.0168C72.1261 25.0811 71.9499 25.1133 71.7376 25.1133C71.4529 25.1133 71.1947 25.0465 70.963 24.913C70.733 24.7779 70.5496 24.5768 70.4129 24.3098C70.2777 24.0411 70.2102 23.7049 70.2102 23.3012C70.2102 22.8942 70.2777 22.5507 70.4129 22.2708C70.5496 21.9893 70.7338 21.7762 70.9654 21.6314C71.1971 21.485 71.4553 21.4118 71.74 21.4118C71.9572 21.4118 72.1357 21.4488 72.2757 21.5228C72.4172 21.5952 72.5298 21.6829 72.6135 21.7858C72.6971 21.8872 72.7607 21.9829 72.8041 22.073H72.8524V21.4601H73.7138V25.2267C73.7138 25.5436 73.6382 25.8058 73.487 26.0133C73.3358 26.2208 73.1291 26.3761 72.8669 26.479C72.6047 26.582 72.3071 26.6335 71.9741 26.6335ZM71.9813 24.428C72.1663 24.428 72.3239 24.383 72.4542 24.2929C72.5845 24.2028 72.6835 24.0733 72.751 23.9044C72.8186 23.7355 72.8524 23.5328 72.8524 23.2963C72.8524 23.0631 72.8186 22.8588 72.751 22.6834C72.6851 22.5081 72.587 22.3722 72.4567 22.2757C72.328 22.1775 72.1695 22.1285 71.9813 22.1285C71.7867 22.1285 71.6242 22.1791 71.4939 22.2805C71.3636 22.3818 71.2655 22.521 71.1995 22.6979C71.1335 22.8733 71.1006 23.0727 71.1006 23.2963C71.1006 23.5232 71.1335 23.7218 71.1995 23.8923C71.2671 24.0612 71.366 24.1932 71.4963 24.2881C71.6282 24.3814 71.7899 24.428 71.9813 24.428ZM75.6755 25.2412C75.4407 25.2412 75.2291 25.1994 75.0409 25.1157C74.8543 25.0305 74.7063 24.905 74.597 24.7393C74.4892 24.5736 74.4353 24.3693 74.4353 24.1264C74.4353 23.9173 74.4739 23.7443 74.5511 23.6076C74.6283 23.4709 74.7337 23.3615 74.8672 23.2794C75.0007 23.1974 75.1511 23.1355 75.3184 23.0936C75.4873 23.0502 75.6619 23.0188 75.842 22.9995C76.0592 22.977 76.2354 22.9569 76.3705 22.9392C76.5056 22.9199 76.6037 22.891 76.6649 22.8523C76.7276 22.8121 76.759 22.7502 76.759 22.6666V22.6521C76.759 22.4703 76.7051 22.3295 76.5973 22.2298C76.4895 22.1301 76.3343 22.0802 76.1316 22.0802C75.9176 22.0802 75.7479 22.1269 75.6225 22.2202C75.4986 22.3135 75.4149 22.4236 75.3715 22.5507L74.5559 22.4349C74.6203 22.2097 74.7264 22.0215 74.8744 21.8703C75.0224 21.7175 75.2034 21.6032 75.4174 21.5276C75.6313 21.4504 75.8678 21.4118 76.1268 21.4118C76.3053 21.4118 76.4831 21.4327 76.66 21.4745C76.837 21.5164 76.9987 21.5855 77.145 21.6821C77.2914 21.777 77.4089 21.9065 77.4973 22.0705C77.5874 22.2346 77.6325 22.4397 77.6325 22.6859V25.1664H76.7927V24.6572H76.7638C76.7107 24.7602 76.6359 24.8567 76.5394 24.9468C76.4445 25.0353 76.3246 25.1069 76.1799 25.1616C76.0367 25.2146 75.8686 25.2412 75.6755 25.2412ZM75.9024 24.5993C76.0777 24.5993 76.2297 24.5647 76.3584 24.4956C76.4871 24.4248 76.586 24.3315 76.6552 24.2157C76.726 24.0999 76.7614 23.9736 76.7614 23.8368V23.4001C76.734 23.4226 76.6874 23.4435 76.6214 23.4628C76.5571 23.4821 76.4847 23.499 76.4043 23.5135C76.3238 23.528 76.2442 23.5408 76.1654 23.5521C76.0866 23.5634 76.0182 23.573 75.9603 23.5811C75.83 23.5988 75.7134 23.6277 75.6104 23.6679C75.5074 23.7081 75.4262 23.7644 75.3667 23.8368C75.3072 23.9076 75.2774 23.9993 75.2774 24.1119C75.2774 24.2728 75.3361 24.3942 75.4536 24.4763C75.571 24.5583 75.7206 24.5993 75.9024 24.5993Z" fill="black"/>
<path d="M32.963 46.3496C32.2737 46.3453 31.6084 46.2296 30.9671 46.0028C30.3302 45.7759 29.7587 45.4073 29.2526 44.8969C28.7465 44.3864 28.3452 43.7102 28.0485 42.8682C27.7562 42.0262 27.6101 40.9923 27.6101 39.7664C27.6144 38.6408 27.7431 37.6352 27.9961 36.7496C28.2535 35.8596 28.62 35.1049 29.0955 34.4854C29.5754 33.8659 30.1491 33.3948 30.8166 33.0719C31.4841 32.7447 32.2323 32.5811 33.0612 32.5811C33.9555 32.5811 34.7452 32.7556 35.4301 33.1046C36.115 33.4493 36.6647 33.9183 37.0792 34.5116C37.498 35.1049 37.751 35.7702 37.8383 36.5075H35.044C34.9349 36.0407 34.7059 35.6742 34.3569 35.4081C34.0079 35.142 33.576 35.0089 33.0612 35.0089C32.1886 35.0089 31.5255 35.3885 31.0718 36.1476C30.6225 36.9067 30.3934 37.9384 30.3847 39.2429H30.4763C30.677 38.8459 30.9475 38.5078 31.2878 38.2286C31.6324 37.945 32.0229 37.729 32.4591 37.5807C32.8998 37.428 33.3644 37.3517 33.853 37.3517C34.647 37.3517 35.3537 37.5393 35.9732 37.9144C36.5927 38.2853 37.0813 38.7957 37.4391 39.4457C37.7968 40.0958 37.9757 40.8396 37.9757 41.6772C37.9757 42.5847 37.7641 43.3917 37.3409 44.0985C36.9221 44.8052 36.3353 45.3593 35.5806 45.7607C34.8302 46.1577 33.9577 46.354 32.963 46.3496ZM32.9499 44.1247C33.3862 44.1247 33.7766 44.02 34.1213 43.8106C34.4659 43.6011 34.7364 43.3176 34.9327 42.9598C35.1291 42.6021 35.2272 42.2007 35.2272 41.7558C35.2272 41.3108 35.1291 40.9116 34.9327 40.5582C34.7408 40.2048 34.4747 39.9234 34.1344 39.714C33.7941 39.5046 33.4058 39.3999 32.9696 39.3999C32.6424 39.3999 32.3392 39.461 32.0599 39.5832C31.7851 39.7053 31.543 39.8755 31.3336 40.0936C31.1285 40.3117 30.9671 40.5648 30.8493 40.8527C30.7315 41.1363 30.6726 41.4395 30.6726 41.7623C30.6726 42.1942 30.7708 42.589 30.9671 42.9468C31.1678 43.3045 31.4383 43.5902 31.7786 43.804C32.1232 44.0178 32.5137 44.1247 32.9499 44.1247ZM45.2395 46.4609C44.1139 46.4565 43.1454 46.1795 42.334 45.6298C41.5269 45.0801 40.9052 44.2839 40.4689 43.2412C40.037 42.1986 39.8233 40.9443 39.8276 39.4785C39.8276 38.017 40.0436 36.7714 40.4755 35.7419C40.9117 34.7123 41.5334 33.9292 42.3405 33.3926C43.152 32.8516 44.1183 32.5811 45.2395 32.5811C46.3607 32.5811 47.3248 32.8516 48.1319 33.3926C48.9434 33.9335 49.5672 34.7188 50.0035 35.7484C50.4397 36.7736 50.6557 38.017 50.6513 39.4785C50.6513 40.9487 50.4332 42.2051 49.9969 43.2478C49.565 44.2904 48.9455 45.0866 48.1385 45.6363C47.3314 46.186 46.365 46.4609 45.2395 46.4609ZM45.2395 44.1116C46.0073 44.1116 46.6203 43.7255 47.0783 42.9533C47.5364 42.1811 47.7633 41.0228 47.7589 39.4785C47.7589 38.462 47.6542 37.6156 47.4448 36.9394C47.2398 36.2632 46.9475 35.7549 46.5679 35.4147C46.1927 35.0744 45.7499 34.9042 45.2395 34.9042C44.476 34.9042 43.8652 35.286 43.4072 36.0494C42.9491 36.8129 42.7179 37.9559 42.7135 39.4785C42.7135 40.508 42.816 41.3675 43.0211 42.0568C43.2305 42.7417 43.525 43.2565 43.9045 43.6011C44.2841 43.9414 44.7291 44.1116 45.2395 44.1116ZM60.0076 43.6535V42.9468C60.0076 42.4101 60.121 41.9172 60.3478 41.4678C60.5791 41.0141 60.9128 40.652 61.3491 40.3815C61.7897 40.1067 62.3263 39.9693 62.9589 39.9693C63.6002 39.9693 64.139 40.1045 64.5752 40.375C65.0159 40.6455 65.3474 41.0076 65.5699 41.4613C65.7968 41.9106 65.9102 42.4058 65.9102 42.9468V43.6535C65.9102 44.1901 65.7968 44.6853 65.5699 45.139C65.3431 45.5883 65.0093 45.9482 64.5687 46.2187C64.1281 46.4936 63.5915 46.631 62.9589 46.631C62.3176 46.631 61.7788 46.4936 61.3425 46.2187C60.9063 45.9482 60.5747 45.5883 60.3478 45.139C60.121 44.6853 60.0076 44.1901 60.0076 43.6535ZM61.9119 42.9468V43.6535C61.9119 43.9632 61.986 44.2555 62.1343 44.5304C62.287 44.8052 62.5619 44.9427 62.9589 44.9427C63.3559 44.9427 63.6264 44.8074 63.7703 44.5369C63.9187 44.2665 63.9928 43.972 63.9928 43.6535V42.9468C63.9928 42.6283 63.923 42.3316 63.7834 42.0568C63.6438 41.7819 63.369 41.6445 62.9589 41.6445C62.5662 41.6445 62.2936 41.7819 62.1409 42.0568C61.9882 42.3316 61.9119 42.6283 61.9119 42.9468ZM53.1299 35.984V35.2772C53.1299 34.7363 53.2455 34.2411 53.4767 33.7918C53.7079 33.338 54.0416 32.9759 54.4779 32.7055C54.9185 32.435 55.4508 32.2997 56.0746 32.2997C56.7203 32.2997 57.2613 32.435 57.6975 32.7055C58.1338 32.9759 58.4654 33.338 58.6922 33.7918C58.9191 34.2411 59.0325 34.7363 59.0325 35.2772V35.984C59.0325 36.5249 58.9169 37.0201 58.6857 37.4695C58.4588 37.9188 58.1251 38.2787 57.6845 38.5492C57.2482 38.8153 56.7116 38.9484 56.0746 38.9484C55.4377 38.9484 54.8989 38.8132 54.4583 38.5427C54.022 38.2678 53.6905 37.9079 53.4636 37.4629C53.2411 37.0136 53.1299 36.5206 53.1299 35.984ZM55.0472 35.2772V35.984C55.0472 36.3025 55.1214 36.5969 55.2697 36.8674C55.4224 37.1379 55.6907 37.2731 56.0746 37.2731C56.476 37.2731 56.7487 37.1379 56.8926 36.8674C57.041 36.5969 57.1151 36.3025 57.1151 35.984V35.2772C57.1151 34.9588 57.0453 34.6621 56.9057 34.3873C56.7661 34.1124 56.4891 33.975 56.0746 33.975C55.6864 33.975 55.4181 34.1146 55.2697 34.3938C55.1214 34.673 55.0472 34.9675 55.0472 35.2772ZM53.9937 46.1664L63.2076 32.7644H64.9221L55.7082 46.1664H53.9937ZM72.5131 44.1247V34.8584H74.8558V44.1247H72.5131ZM69.0513 40.6629V38.3202H78.3176V40.6629H69.0513Z" fill="url(#paint0_linear_32_47)"/>
</g>
<defs>
<filter id="filter0_d_32_47" x="0.179097" y="0" width="87.457" height="72.457" filterUnits="userSpaceOnUse" color-interpolation-filters="sRGB">
<feFlood flood-opacity="0" result="BackgroundImageFix"/>
<feColorMatrix in="SourceAlpha" type="matrix" values="0 0 0 0 0 0 0 0 0 0 0 0 0 0 0 0 0 0 127 0" result="hardAlpha"/>
<feOffset dx="-7.56051" dy="7.56215"/>
<feGaussianBlur stdDeviation="3.78107"/>
<feComposite in2="hardAlpha" operator="out"/>
<feColorMatrix type="matrix" values="0 0 0 0 0 0 0 0 0 0 0 0 0 0 0 0 0 0 0.1 0"/>
<feBlend mode="normal" in2="BackgroundImageFix" result="effect1_dropShadow_32_47"/>
<feBlend mode="normal" in="SourceGraphic" in2="effect1_dropShadow_32_47" result="shape"/>
</filter>
<linearGradient id="paint0_linear_32_47" x1="22.4681" y1="50.1664" x2="67.141" y2="12.4015" gradientUnits="userSpaceOnUse">
<stop stop-color="#EB2A2E"/>
<stop offset="1" stop-color="#CF1863"/>
</linearGradient>
</defs>
</svg>
