<svg width="1518" height="1032" viewBox="0 0 1518 1032" fill="none" xmlns="http://www.w3.org/2000/svg">
<path opacity="0.4" d="M1.51547 1032L1.51542 2.27876e-05M190.951 1032L190.951 2.27876e-05M380.387 1032L380.387 2.27876e-05M569.822 1032L569.822 2.27876e-05M759.258 1032L759.258 2.27876e-05M948.693 1032L948.693 2.27876e-05M1138.13 1032L1138.13 2.27876e-05M1327.56 1032L1327.56 2.27876e-05M1517 1032L1517 2.27876e-05M1 28.8548H1516.48M1 191.215L1516.48 191.215M1 353.575L1516.48 353.575M1 515.934L1516.48 515.934M1 678.294L1516.48 678.294M1 840.654L1516.48 840.654M1 1003.01L1516.48 1003.01" stroke="url(#paint0_radial_154_101)" stroke-opacity="0.3" stroke-width="1.65978"/>
<defs>
<radialGradient id="paint0_radial_154_101" cx="0" cy="0" r="1" gradientUnits="userSpaceOnUse" gradientTransform="translate(759 516) rotate(-90) scale(516 758)">
<stop stop-color="white"/>
<stop offset="1" stop-color="white" stop-opacity="0.26"/>
</radialGradient>
</defs>
</svg>
