<svg width="638" height="424" viewBox="0 0 638 424" fill="none" xmlns="http://www.w3.org/2000/svg">
<path d="M1.21625 0.71051L1.21623 423.711M80.6892 0.71051L80.6892 423.711M160.162 0.71051L160.162 423.711M239.635 0.71051L239.635 423.711M319.108 0.71051L319.108 423.711M398.581 0.71051L398.581 423.711M478.054 0.71051L478.054 423.711M557.527 0.71051L557.527 423.711M637 0.71051L637 423.711M1 411.883H636.784M1 345.335L636.784 345.335M1 278.786L636.784 278.786M1 212.237L636.784 212.237M1 145.689L636.784 145.689M1 79.14L636.784 79.1401M1 12.5914L636.784 12.5914" stroke="url(#paint0_radial_233_105)" stroke-opacity="0.3" stroke-width="1.57002"/>
<defs>
<radialGradient id="paint0_radial_233_105" cx="0" cy="0" r="1" gradientUnits="userSpaceOnUse" gradientTransform="translate(319 212.211) rotate(90) scale(211.5 318)">
<stop stop-color="white"/>
<stop offset="1" stop-color="white" stop-opacity="0"/>
</radialGradient>
</defs>
</svg>
